M48
;Layer_Color=9474304
;FILE_FORMAT=4:4
METRIC,LZ
;TYPE=PLATED
T1F00S00C0.2000
T2F00S00C0.3302
T5F00S00C0.8400
T6F00S00C1.0000
T7F00S00C1.0160
T8F00S00C1.0200
T9F00S00C1.1000
%
T01
X00616204Y0017887
X00455563Y00185296
X00441813
Y00171296
X00455563Y00171293
Y00157296
X00441813
Y00143296
X00455563
X00427447
X00413984
Y00156926
X00427447Y00157296
Y00171296
X00413984Y00171296
Y00185296
X00427447
X0039751Y00576312
X0040401Y00582812
X0039751Y00589313
X0039101Y00582812
T02
X00104394Y0000762
X0010414Y00019304
Y00030226
Y0004191
Y0005461
Y0006731
Y0008001
Y0009271
Y0010541
Y0011811
Y0013081
X0011811
Y0011811
Y0010541
Y0009271
Y0008001
Y0006731
Y0005461
Y0004191
Y00030226
Y00019304
Y00007366
X0013081Y0000762
Y00019304
Y00030226
Y0004191
Y0005461
Y0006731
Y0008001
Y0009271
Y0010541
Y0011811
Y0013081
X0014351
X0015621
Y0011811
Y0010541
Y0009271
X0016891
Y0008001
X0015621
X0014351
Y0006731
X0015621
Y0005461
X0016891
Y0006731
X00168402Y0004191
Y00030226
X00168148Y00019304
Y0000762
X0015621
Y00019304
Y00030226
Y0004191
X0014351
Y00030226
Y00019304
Y0000762
Y0005461
Y0009271
Y0010541
Y0011811
X00169164
Y0010541
X00169418Y0013081
X003302Y00100584
X00345694Y00101346
X0037338Y0009779
X003556Y0012319
X0035433Y001397
X00328168Y00064262
X00317754Y00063754
X00396494Y00045725
Y00026924
X00422656Y00066548
X00418338Y0008763
X0052578Y0011049
X005461Y00127
X0056388Y0013843
X0058801
X00563753Y00073152
X00557022Y00050292
X00556514Y00036068
X0054356Y00159004
X00556879Y00184769
X0062992Y0018796
X0062865Y002159
X0061849Y0022606
X00611887Y00255411
X0061214Y00268365
X00635762Y00348234
X00638676Y00365099
X00651111Y00353687
X0066421Y0037719
X00673354Y0032766
X00687197Y00327543
X00691134Y00232664
X00667512Y00161544
X00648335Y00161925
X00532638Y00169418
X00535675Y00209793
X0052197Y00221996
X00511302Y0022225
X00506984Y00207772
X00488443Y00222758
X00478536Y0019842
Y00182507
X00386636Y00178249
X00372158Y00183583
X00358696Y00184345
X0036068Y00167386
X00373238Y00167556
X00372777Y00153162
X0036068
X0034798
X0033528
X0032258
X0030988
X0029718
X0028448
X0027178
X0025908
X0024638
X0023368
X0022098
X0020828
X0019558
X0018288
Y00167386
X0019558
X0020828
X0022098
X0023368
X0024638
X0025908
X0027178
X0028448
X0029718
X0030988
X0032258Y0016764
X0033528Y00167132
X0034798
X00334566Y00183075
X00321866
X00309166
X00296466
X00283766
X00271066
X00258366
X00245666
X00232966
X00220266
X00207566
X00194866
X00182166
X00169466
X00156766
X00144066
X0014351Y00167386
X0015621
X0016891
Y00154432
X00169418Y0014351
X0015621
Y00154432
X0014351
Y0014351
X00155496Y00205935
X00168196
X0017988Y00206189
X0019304Y00205486
X00207566Y00205427
X00220266Y00205173
X00232966Y00204919
X00245666Y00204665
X00258366Y00204411
X00271066Y00204157
X00283766Y00203903
X00296466
X00309166Y00203649
X00321866Y00203395
X00334566Y00203141
X00347266
X00359966Y00202887
X00372506Y00202696
X00386636Y00202379
X004064Y00223012
X00400812Y00231902
X00411226Y00249642
X003556Y00241554
X00347726Y0032893
X00325501Y00328676
X0027305Y0032766
X00254254Y00328168
X0023114Y0036576
X00184912Y00328676
X00186738Y00274515
X00173276
X00160576
X00147876Y00274769
Y00260545
X00160576
X00173276
X00186738
X00186992Y00245305
X00173276
X00160576
X00147876
Y00231335
X00160576
X00173276
X00187246
X00187954Y00218439
X001778Y00218186
X0016764
X0015494
X00155194Y00297942
X00384302Y00320548
X003843Y00338398
X004191Y0034163
X0042037Y0039624
X00465496Y00413852
X00511302Y0041021
X0051435Y0037846
X0050038Y0036576
X00471209Y00365721
X0049657Y0032512
X0050546Y0028448
X00478282Y0028321
X00455423Y0028194
X00514023Y0024384
X00533654Y00346202
X00347091Y00405258
X00325374Y00405384
X0026162Y0046482
X00394462Y0050038
X00445476Y00525057
X00080264Y00478536
X0005461Y0045212
X0002667Y0045593
X0002794Y0047371
X00033528Y0027559
X00020828
X00007366Y00275336
Y00259588
X00020828
X00033528
X00046228
X00058928
X00071628
X00084328
X00097028
X00109728
X00122428
X00135176Y00260545
Y00274769
X00122428Y00274828
X00109728Y00275082
X00097028
X00084328
X00071628
X00058928Y00275336
X00046228
Y00244856
Y0023241
X00058928
Y00244856
X00071628
Y0023241
X00084328
Y00244856
X00097028
Y0023241
X00109728Y00231648
X00122428
X00135176Y00231335
Y00245305
X00122428Y00245618
X00109728
X0010414Y0021844
X00104394Y00208788
Y00196088
X00104696Y00185615
X00117396Y00183075
X00131366
X0013081Y00167386
X0011811
X0010541
X0010414Y00154432
Y0014351
X0011811
Y00154432
X0013081
Y0014351
X00130048Y00206248
X0012954Y00218186
X0014224
X00142796Y00205935
X00117348Y00206248
X0011684Y00218186
X00033528Y0023241
Y00244856
X00020828
Y0023241
X00007366
X00007251Y00244974
X0004699Y0056642
X0004445Y0067056
X0004826Y0077089
X0032893Y0061595
X00352658Y0056261
X00381Y0064262
X003937
X00429768Y0066421
X0042672Y0068072
X0046482Y006477
X00473456Y00540512
T05
X00693168Y00740219
T06
X00568168Y00740219
T07
X00577481Y00210058
Y00235458
Y00260858
X00562356Y00299212
Y00324612
Y00350012
X0048387Y0044831
X0045847
X00342138Y0050292
Y0052832
X00295148Y00514987
X00269748
X00521601Y00584213
Y00609613
X00575181Y00637687
Y00663087
T08
X00405892Y0073914
X00431292
T09
X00679227Y00270016
X0051689Y00701292
X0049149
X0046609
X0054229
M30
