G04*
G04 #@! TF.GenerationSoftware,Altium Limited,Altium Designer,23.1.1 (15)*
G04*
G04 Layer_Color=16711935*
%FSLAX44Y44*%
%MOMM*%
G71*
G04*
G04 #@! TF.SameCoordinates,8BC828A1-C8E0-4588-AEB6-AA5E87443106*
G04*
G04*
G04 #@! TF.FilePolarity,Positive*
G04*
G01*
G75*
%ADD10C,0.1524*%
%ADD12C,0.2540*%
%ADD13C,0.1000*%
%ADD14C,0.2000*%
%ADD18C,0.1270*%
%ADD162C,0.1800*%
%ADD163C,0.2300*%
%ADD164C,0.1200*%
%ADD165C,0.1500*%
%ADD166C,0.1600*%
%ADD167C,0.1016*%
%ADD168C,0.0800*%
G36*
X404304Y262590D02*
X404424Y262572D01*
X404572Y262544D01*
X404739Y262498D01*
X404905Y262442D01*
X405071Y262368D01*
X405081D01*
X405090Y262359D01*
X405145Y262331D01*
X405229Y262276D01*
X405321Y262211D01*
X405432Y262119D01*
X405543Y262017D01*
X405654Y261897D01*
X405746Y261758D01*
X405756Y261740D01*
X405783Y261693D01*
X405820Y261610D01*
X405867Y261509D01*
X405913Y261388D01*
X405950Y261250D01*
X405977Y261092D01*
X405987Y260935D01*
Y260917D01*
Y260861D01*
X405977Y260787D01*
X405959Y260686D01*
X405931Y260565D01*
X405885Y260436D01*
X405830Y260307D01*
X405756Y260177D01*
X405746Y260159D01*
X405718Y260122D01*
X405663Y260057D01*
X405589Y259983D01*
X405497Y259900D01*
X405386Y259807D01*
X405256Y259724D01*
X405099Y259641D01*
X405108D01*
X405127Y259632D01*
X405155Y259622D01*
X405191Y259613D01*
X405293Y259576D01*
X405423Y259521D01*
X405571Y259447D01*
X405718Y259354D01*
X405857Y259234D01*
X405987Y259095D01*
X405996Y259077D01*
X406033Y259021D01*
X406088Y258929D01*
X406144Y258809D01*
X406199Y258661D01*
X406255Y258485D01*
X406292Y258282D01*
X406301Y258060D01*
Y258051D01*
Y258023D01*
Y257977D01*
X406292Y257921D01*
X406283Y257847D01*
X406264Y257764D01*
X406245Y257672D01*
X406227Y257570D01*
X406153Y257348D01*
X406098Y257228D01*
X406042Y257117D01*
X405968Y256997D01*
X405885Y256877D01*
X405793Y256756D01*
X405682Y256645D01*
X405672Y256636D01*
X405654Y256618D01*
X405617Y256590D01*
X405571Y256553D01*
X405515Y256507D01*
X405441Y256460D01*
X405358Y256405D01*
X405256Y256359D01*
X405155Y256303D01*
X405034Y256248D01*
X404914Y256202D01*
X404776Y256155D01*
X404628Y256118D01*
X404470Y256091D01*
X404313Y256072D01*
X404137Y256063D01*
X404054D01*
X403999Y256072D01*
X403925Y256081D01*
X403842Y256091D01*
X403749Y256109D01*
X403647Y256128D01*
X403426Y256183D01*
X403195Y256276D01*
X403074Y256331D01*
X402963Y256396D01*
X402852Y256479D01*
X402742Y256562D01*
X402732Y256571D01*
X402714Y256590D01*
X402686Y256618D01*
X402658Y256655D01*
X402612Y256701D01*
X402566Y256766D01*
X402510Y256830D01*
X402455Y256914D01*
X402399Y257006D01*
X402344Y257098D01*
X402242Y257320D01*
X402159Y257579D01*
X402131Y257718D01*
X402113Y257866D01*
X402899Y257967D01*
Y257958D01*
X402908Y257940D01*
X402917Y257903D01*
X402926Y257857D01*
X402936Y257801D01*
X402954Y257736D01*
X403000Y257598D01*
X403065Y257431D01*
X403148Y257274D01*
X403241Y257126D01*
X403352Y256997D01*
X403370Y256987D01*
X403407Y256950D01*
X403481Y256904D01*
X403574Y256858D01*
X403685Y256803D01*
X403823Y256756D01*
X403980Y256719D01*
X404147Y256710D01*
X404202D01*
X404239Y256719D01*
X404341Y256729D01*
X404470Y256756D01*
X404618Y256803D01*
X404776Y256867D01*
X404933Y256960D01*
X405081Y257089D01*
X405099Y257108D01*
X405145Y257163D01*
X405201Y257246D01*
X405275Y257357D01*
X405349Y257496D01*
X405404Y257653D01*
X405450Y257838D01*
X405469Y258041D01*
Y258051D01*
Y258069D01*
Y258097D01*
X405460Y258134D01*
X405450Y258236D01*
X405423Y258356D01*
X405386Y258504D01*
X405321Y258652D01*
X405229Y258800D01*
X405108Y258938D01*
X405090Y258957D01*
X405044Y258994D01*
X404970Y259049D01*
X404868Y259114D01*
X404739Y259179D01*
X404581Y259234D01*
X404406Y259271D01*
X404212Y259290D01*
X404128D01*
X404064Y259280D01*
X403980Y259271D01*
X403888Y259253D01*
X403777Y259234D01*
X403657Y259206D01*
X403749Y259900D01*
X403796D01*
X403832Y259891D01*
X403953D01*
X404054Y259909D01*
X404174Y259928D01*
X404313Y259955D01*
X404470Y260002D01*
X404618Y260066D01*
X404776Y260149D01*
X404785D01*
X404794Y260159D01*
X404840Y260196D01*
X404905Y260260D01*
X404979Y260344D01*
X405053Y260464D01*
X405118Y260602D01*
X405164Y260760D01*
X405182Y260852D01*
Y260954D01*
Y260963D01*
Y260972D01*
Y261028D01*
X405164Y261102D01*
X405145Y261203D01*
X405108Y261314D01*
X405062Y261435D01*
X404988Y261555D01*
X404886Y261666D01*
X404877Y261675D01*
X404831Y261712D01*
X404766Y261758D01*
X404683Y261814D01*
X404572Y261860D01*
X404443Y261906D01*
X404295Y261943D01*
X404128Y261952D01*
X404054D01*
X403971Y261934D01*
X403860Y261915D01*
X403740Y261878D01*
X403620Y261832D01*
X403490Y261758D01*
X403370Y261666D01*
X403361Y261656D01*
X403324Y261610D01*
X403269Y261546D01*
X403204Y261453D01*
X403139Y261333D01*
X403074Y261185D01*
X403019Y261009D01*
X402982Y260806D01*
X402196Y260945D01*
Y260954D01*
X402205Y260982D01*
X402215Y261019D01*
X402224Y261074D01*
X402242Y261139D01*
X402270Y261213D01*
X402325Y261388D01*
X402418Y261592D01*
X402529Y261795D01*
X402668Y261989D01*
X402843Y262165D01*
X402852Y262174D01*
X402871Y262183D01*
X402899Y262202D01*
X402936Y262230D01*
X402982Y262267D01*
X403047Y262304D01*
X403111Y262341D01*
X403195Y262387D01*
X403379Y262461D01*
X403592Y262535D01*
X403842Y262581D01*
X403971Y262600D01*
X404202D01*
X404304Y262590D01*
D02*
G37*
G36*
X398267Y256932D02*
X401419D01*
Y256174D01*
X397416D01*
Y262572D01*
X398267D01*
Y256932D01*
D02*
G37*
G36*
X389306Y569502D02*
Y569489D01*
Y569433D01*
Y569364D01*
Y569267D01*
X389292Y569142D01*
Y569003D01*
X389279Y568837D01*
X389265Y568670D01*
X389223Y568296D01*
X389168Y567908D01*
X389085Y567533D01*
X389029Y567353D01*
X388974Y567187D01*
Y567173D01*
X388960Y567145D01*
X388932Y567103D01*
X388904Y567048D01*
X388821Y566895D01*
X388696Y566701D01*
X388530Y566479D01*
X388336Y566257D01*
X388086Y566022D01*
X387781Y565813D01*
X387767D01*
X387739Y565786D01*
X387698Y565772D01*
X387628Y565730D01*
X387545Y565689D01*
X387434Y565647D01*
X387323Y565606D01*
X387184Y565550D01*
X387032Y565495D01*
X386866Y565453D01*
X386685Y565411D01*
X386477Y565370D01*
X386269Y565342D01*
X386047Y565314D01*
X385548Y565286D01*
X385423D01*
X385326Y565300D01*
X385215D01*
X385076Y565314D01*
X384924Y565328D01*
X384771Y565342D01*
X384425Y565397D01*
X384050Y565481D01*
X383690Y565592D01*
X383343Y565744D01*
X383329D01*
X383301Y565772D01*
X383260Y565800D01*
X383204Y565827D01*
X383052Y565938D01*
X382872Y566091D01*
X382663Y566285D01*
X382469Y566507D01*
X382275Y566784D01*
X382123Y567089D01*
Y567103D01*
X382109Y567131D01*
X382095Y567187D01*
X382067Y567256D01*
X382039Y567339D01*
X382012Y567450D01*
X381970Y567575D01*
X381942Y567727D01*
X381915Y567894D01*
X381873Y568074D01*
X381845Y568268D01*
X381818Y568476D01*
X381790Y568712D01*
X381776Y568962D01*
X381762Y569225D01*
Y569502D01*
Y575050D01*
X383038D01*
Y569502D01*
Y569489D01*
Y569447D01*
Y569378D01*
Y569295D01*
X383052Y569197D01*
Y569073D01*
X383066Y568809D01*
X383093Y568504D01*
X383135Y568199D01*
X383190Y567908D01*
X383218Y567783D01*
X383260Y567658D01*
X383274Y567630D01*
X383301Y567561D01*
X383371Y567464D01*
X383454Y567325D01*
X383551Y567187D01*
X383690Y567034D01*
X383856Y566881D01*
X384050Y566757D01*
X384078Y566743D01*
X384147Y566701D01*
X384272Y566660D01*
X384439Y566604D01*
X384633Y566535D01*
X384882Y566493D01*
X385146Y566451D01*
X385437Y566438D01*
X385576D01*
X385659Y566451D01*
X385784D01*
X385909Y566465D01*
X386214Y566521D01*
X386547Y566590D01*
X386866Y566701D01*
X387171Y566854D01*
X387309Y566951D01*
X387434Y567062D01*
X387448Y567076D01*
X387462Y567089D01*
X387490Y567131D01*
X387531Y567187D01*
X387573Y567270D01*
X387628Y567353D01*
X387684Y567478D01*
X387739Y567603D01*
X387795Y567755D01*
X387836Y567935D01*
X387892Y568143D01*
X387933Y568365D01*
X387975Y568615D01*
X388003Y568878D01*
X388031Y569184D01*
Y569502D01*
Y575050D01*
X389306D01*
Y569502D01*
D02*
G37*
G36*
X396851Y573802D02*
X393009D01*
X392496Y571208D01*
X392510Y571222D01*
X392538Y571236D01*
X392579Y571264D01*
X392649Y571305D01*
X392732Y571347D01*
X392829Y571403D01*
X393051Y571513D01*
X393328Y571624D01*
X393633Y571721D01*
X393966Y571791D01*
X394133Y571819D01*
X394438D01*
X394521Y571805D01*
X394632Y571791D01*
X394757Y571777D01*
X394895Y571749D01*
X395048Y571708D01*
X395381Y571610D01*
X395561Y571541D01*
X395741Y571444D01*
X395922Y571347D01*
X396102Y571236D01*
X396268Y571097D01*
X396435Y570945D01*
X396449Y570931D01*
X396476Y570903D01*
X396518Y570862D01*
X396573Y570792D01*
X396643Y570695D01*
X396712Y570598D01*
X396795Y570473D01*
X396879Y570335D01*
X396948Y570182D01*
X397031Y570016D01*
X397100Y569822D01*
X397170Y569627D01*
X397225Y569419D01*
X397267Y569184D01*
X397295Y568948D01*
X397309Y568698D01*
Y568684D01*
Y568643D01*
Y568573D01*
X397295Y568476D01*
X397281Y568365D01*
X397267Y568241D01*
X397239Y568088D01*
X397211Y567935D01*
X397128Y567575D01*
X396990Y567200D01*
X396906Y567006D01*
X396795Y566826D01*
X396684Y566632D01*
X396546Y566451D01*
X396532Y566438D01*
X396504Y566396D01*
X396449Y566340D01*
X396379Y566271D01*
X396282Y566188D01*
X396171Y566077D01*
X396033Y565980D01*
X395880Y565869D01*
X395714Y565758D01*
X395519Y565661D01*
X395311Y565564D01*
X395089Y565467D01*
X394854Y565397D01*
X394590Y565342D01*
X394313Y565300D01*
X394022Y565286D01*
X393897D01*
X393800Y565300D01*
X393689Y565314D01*
X393564Y565328D01*
X393411Y565342D01*
X393259Y565384D01*
X392912Y565467D01*
X392565Y565592D01*
X392385Y565675D01*
X392205Y565772D01*
X392038Y565883D01*
X391872Y566008D01*
X391858Y566022D01*
X391830Y566035D01*
X391803Y566091D01*
X391747Y566146D01*
X391678Y566216D01*
X391609Y566299D01*
X391525Y566410D01*
X391456Y566535D01*
X391373Y566660D01*
X391290Y566812D01*
X391137Y567145D01*
X391012Y567533D01*
X390971Y567741D01*
X390943Y567963D01*
X392177Y568060D01*
Y568046D01*
Y568019D01*
X392191Y567977D01*
X392205Y567908D01*
X392247Y567755D01*
X392302Y567547D01*
X392385Y567339D01*
X392496Y567103D01*
X392635Y566895D01*
X392801Y566701D01*
X392829Y566687D01*
X392884Y566632D01*
X392995Y566562D01*
X393148Y566479D01*
X393314Y566396D01*
X393522Y566327D01*
X393758Y566271D01*
X394022Y566257D01*
X394105D01*
X394160Y566271D01*
X394327Y566285D01*
X394521Y566340D01*
X394757Y566410D01*
X394992Y566521D01*
X395242Y566687D01*
X395353Y566784D01*
X395464Y566895D01*
X395478Y566909D01*
X395492Y566923D01*
X395519Y566965D01*
X395561Y567006D01*
X395658Y567159D01*
X395769Y567353D01*
X395866Y567589D01*
X395963Y567880D01*
X396033Y568227D01*
X396060Y568407D01*
Y568601D01*
Y568615D01*
Y568643D01*
Y568698D01*
X396046Y568768D01*
Y568851D01*
X396033Y568948D01*
X395991Y569170D01*
X395922Y569433D01*
X395825Y569697D01*
X395686Y569946D01*
X395492Y570182D01*
Y570196D01*
X395464Y570210D01*
X395395Y570279D01*
X395270Y570376D01*
X395103Y570487D01*
X394882Y570584D01*
X394632Y570681D01*
X394341Y570751D01*
X394174Y570778D01*
X393911D01*
X393800Y570765D01*
X393661Y570751D01*
X393495Y570709D01*
X393328Y570667D01*
X393148Y570598D01*
X392968Y570515D01*
X392954Y570501D01*
X392898Y570473D01*
X392815Y570404D01*
X392704Y570335D01*
X392593Y570238D01*
X392482Y570113D01*
X392357Y569988D01*
X392260Y569835D01*
X391151Y569988D01*
X392080Y574925D01*
X396851D01*
Y573802D01*
D02*
G37*
G36*
X420568Y678942D02*
X419782D01*
Y683944D01*
X419773Y683935D01*
X419727Y683898D01*
X419672Y683842D01*
X419579Y683777D01*
X419477Y683694D01*
X419348Y683602D01*
X419200Y683500D01*
X419034Y683398D01*
X419024D01*
X419015Y683389D01*
X418960Y683352D01*
X418867Y683306D01*
X418756Y683250D01*
X418627Y683186D01*
X418488Y683121D01*
X418349Y683056D01*
X418211Y683001D01*
Y683759D01*
X418220D01*
X418238Y683777D01*
X418275Y683787D01*
X418322Y683814D01*
X418377Y683842D01*
X418442Y683879D01*
X418599Y683972D01*
X418784Y684073D01*
X418969Y684203D01*
X419163Y684351D01*
X419357Y684508D01*
X419366Y684517D01*
X419376Y684526D01*
X419403Y684554D01*
X419440Y684582D01*
X419524Y684674D01*
X419635Y684785D01*
X419745Y684915D01*
X419866Y685063D01*
X419967Y685210D01*
X420060Y685368D01*
X420568D01*
Y678942D01*
D02*
G37*
G36*
X414106Y685331D02*
X414291Y685322D01*
X414476Y685303D01*
X414660Y685275D01*
X414818Y685247D01*
X414827D01*
X414845Y685238D01*
X414873D01*
X414910Y685220D01*
X415012Y685192D01*
X415141Y685146D01*
X415289Y685081D01*
X415446Y684998D01*
X415603Y684905D01*
X415751Y684785D01*
X415761Y684776D01*
X415770Y684767D01*
X415798Y684739D01*
X415835Y684711D01*
X415927Y684619D01*
X416038Y684489D01*
X416158Y684332D01*
X416288Y684147D01*
X416408Y683935D01*
X416510Y683694D01*
Y683685D01*
X416519Y683667D01*
X416537Y683630D01*
X416547Y683574D01*
X416574Y683509D01*
X416593Y683435D01*
X416611Y683352D01*
X416639Y683250D01*
X416667Y683149D01*
X416685Y683029D01*
X416731Y682770D01*
X416759Y682483D01*
X416768Y682169D01*
Y682160D01*
Y682141D01*
Y682095D01*
Y682048D01*
X416759Y681984D01*
Y681910D01*
X416750Y681734D01*
X416722Y681531D01*
X416694Y681318D01*
X416648Y681096D01*
X416593Y680874D01*
Y680865D01*
X416584Y680847D01*
X416574Y680819D01*
X416565Y680782D01*
X416528Y680680D01*
X416473Y680551D01*
X416417Y680403D01*
X416343Y680255D01*
X416251Y680098D01*
X416158Y679950D01*
X416149Y679931D01*
X416112Y679885D01*
X416057Y679820D01*
X415983Y679737D01*
X415899Y679645D01*
X415798Y679552D01*
X415696Y679451D01*
X415576Y679367D01*
X415557Y679358D01*
X415520Y679330D01*
X415456Y679293D01*
X415363Y679247D01*
X415252Y679192D01*
X415123Y679145D01*
X414975Y679090D01*
X414808Y679044D01*
X414790D01*
X414762Y679035D01*
X414734Y679025D01*
X414642Y679016D01*
X414512Y678997D01*
X414365Y678979D01*
X414189Y678960D01*
X413995Y678951D01*
X413782Y678942D01*
X411480D01*
Y685340D01*
X413939D01*
X414106Y685331D01*
D02*
G37*
G36*
X327607Y25406D02*
Y25392D01*
Y25337D01*
Y25267D01*
Y25170D01*
X327593Y25045D01*
Y24907D01*
X327579Y24740D01*
X327565Y24574D01*
X327524Y24199D01*
X327468Y23811D01*
X327385Y23437D01*
X327329Y23256D01*
X327274Y23090D01*
Y23076D01*
X327260Y23048D01*
X327232Y23007D01*
X327205Y22951D01*
X327121Y22799D01*
X326997Y22605D01*
X326830Y22383D01*
X326636Y22161D01*
X326386Y21925D01*
X326081Y21717D01*
X326067D01*
X326040Y21689D01*
X325998Y21675D01*
X325929Y21634D01*
X325845Y21592D01*
X325735Y21551D01*
X325624Y21509D01*
X325485Y21453D01*
X325332Y21398D01*
X325166Y21356D01*
X324986Y21315D01*
X324778Y21273D01*
X324570Y21246D01*
X324348Y21218D01*
X323848Y21190D01*
X323724D01*
X323627Y21204D01*
X323516D01*
X323377Y21218D01*
X323224Y21232D01*
X323072Y21246D01*
X322725Y21301D01*
X322351Y21384D01*
X321990Y21495D01*
X321643Y21648D01*
X321629D01*
X321602Y21675D01*
X321560Y21703D01*
X321505Y21731D01*
X321352Y21842D01*
X321172Y21994D01*
X320964Y22188D01*
X320770Y22410D01*
X320575Y22688D01*
X320423Y22993D01*
Y23007D01*
X320409Y23035D01*
X320395Y23090D01*
X320368Y23159D01*
X320340Y23242D01*
X320312Y23354D01*
X320270Y23478D01*
X320243Y23631D01*
X320215Y23797D01*
X320173Y23977D01*
X320146Y24172D01*
X320118Y24380D01*
X320090Y24615D01*
X320076Y24865D01*
X320062Y25129D01*
Y25406D01*
Y30953D01*
X321338D01*
Y25406D01*
Y25392D01*
Y25350D01*
Y25281D01*
Y25198D01*
X321352Y25101D01*
Y24976D01*
X321366Y24713D01*
X321394Y24407D01*
X321435Y24102D01*
X321491Y23811D01*
X321519Y23686D01*
X321560Y23561D01*
X321574Y23534D01*
X321602Y23464D01*
X321671Y23367D01*
X321754Y23229D01*
X321851Y23090D01*
X321990Y22937D01*
X322156Y22785D01*
X322351Y22660D01*
X322378Y22646D01*
X322448Y22605D01*
X322573Y22563D01*
X322739Y22508D01*
X322933Y22438D01*
X323183Y22397D01*
X323446Y22355D01*
X323737Y22341D01*
X323876D01*
X323959Y22355D01*
X324084D01*
X324209Y22369D01*
X324514Y22424D01*
X324847Y22494D01*
X325166Y22605D01*
X325471Y22757D01*
X325610Y22854D01*
X325735Y22965D01*
X325748Y22979D01*
X325762Y22993D01*
X325790Y23035D01*
X325832Y23090D01*
X325873Y23173D01*
X325929Y23256D01*
X325984Y23381D01*
X326040Y23506D01*
X326095Y23659D01*
X326137Y23839D01*
X326192Y24047D01*
X326234Y24269D01*
X326275Y24518D01*
X326303Y24782D01*
X326331Y25087D01*
Y25406D01*
Y30953D01*
X327607D01*
Y25406D01*
D02*
G37*
G36*
X334194Y24740D02*
X335498D01*
Y23659D01*
X334194D01*
Y21356D01*
X333016D01*
Y23659D01*
X328841D01*
Y24740D01*
X333237Y30953D01*
X334194D01*
Y24740D01*
D02*
G37*
G36*
X374764Y108682D02*
X375633D01*
Y107961D01*
X374764D01*
Y106426D01*
X373978D01*
Y107961D01*
X371195D01*
Y108682D01*
X374126Y112824D01*
X374764D01*
Y108682D01*
D02*
G37*
G36*
X367627Y107184D02*
X370779D01*
Y106426D01*
X366776D01*
Y112824D01*
X367627D01*
Y107184D01*
D02*
G37*
G36*
X179740Y332655D02*
X177179D01*
X176837Y330926D01*
X176847Y330936D01*
X176865Y330945D01*
X176893Y330963D01*
X176939Y330991D01*
X176994Y331019D01*
X177059Y331056D01*
X177207Y331130D01*
X177392Y331204D01*
X177596Y331268D01*
X177817Y331315D01*
X177928Y331333D01*
X178132D01*
X178187Y331324D01*
X178261Y331315D01*
X178344Y331305D01*
X178437Y331287D01*
X178538Y331259D01*
X178760Y331194D01*
X178881Y331148D01*
X179001Y331083D01*
X179121Y331019D01*
X179241Y330945D01*
X179352Y330852D01*
X179463Y330751D01*
X179472Y330741D01*
X179491Y330723D01*
X179519Y330695D01*
X179555Y330649D01*
X179602Y330584D01*
X179648Y330519D01*
X179704Y330436D01*
X179759Y330344D01*
X179805Y330242D01*
X179861Y330131D01*
X179907Y330002D01*
X179953Y329872D01*
X179990Y329734D01*
X180018Y329576D01*
X180036Y329419D01*
X180046Y329253D01*
Y329244D01*
Y329216D01*
Y329170D01*
X180036Y329105D01*
X180027Y329031D01*
X180018Y328948D01*
X179999Y328846D01*
X179981Y328744D01*
X179925Y328504D01*
X179833Y328254D01*
X179777Y328125D01*
X179704Y328005D01*
X179629Y327875D01*
X179537Y327755D01*
X179528Y327746D01*
X179509Y327718D01*
X179472Y327681D01*
X179426Y327635D01*
X179361Y327579D01*
X179287Y327505D01*
X179195Y327441D01*
X179093Y327367D01*
X178982Y327293D01*
X178853Y327228D01*
X178714Y327163D01*
X178566Y327099D01*
X178409Y327052D01*
X178233Y327015D01*
X178048Y326988D01*
X177854Y326978D01*
X177771D01*
X177706Y326988D01*
X177632Y326997D01*
X177549Y327006D01*
X177447Y327015D01*
X177346Y327043D01*
X177115Y327099D01*
X176884Y327182D01*
X176763Y327237D01*
X176643Y327302D01*
X176532Y327376D01*
X176421Y327459D01*
X176412Y327468D01*
X176394Y327478D01*
X176375Y327515D01*
X176338Y327552D01*
X176292Y327598D01*
X176246Y327653D01*
X176190Y327727D01*
X176144Y327811D01*
X176088Y327894D01*
X176033Y327995D01*
X175931Y328217D01*
X175848Y328476D01*
X175820Y328615D01*
X175802Y328763D01*
X176625Y328828D01*
Y328818D01*
Y328800D01*
X176634Y328772D01*
X176643Y328726D01*
X176671Y328624D01*
X176708Y328485D01*
X176763Y328347D01*
X176837Y328190D01*
X176930Y328051D01*
X177041Y327921D01*
X177059Y327912D01*
X177096Y327875D01*
X177170Y327829D01*
X177272Y327774D01*
X177383Y327718D01*
X177521Y327672D01*
X177679Y327635D01*
X177854Y327626D01*
X177910D01*
X177947Y327635D01*
X178058Y327644D01*
X178187Y327681D01*
X178344Y327727D01*
X178501Y327801D01*
X178668Y327912D01*
X178742Y327977D01*
X178816Y328051D01*
X178825Y328060D01*
X178834Y328069D01*
X178853Y328097D01*
X178881Y328125D01*
X178945Y328227D01*
X179019Y328356D01*
X179084Y328513D01*
X179149Y328707D01*
X179195Y328938D01*
X179213Y329059D01*
Y329188D01*
Y329197D01*
Y329216D01*
Y329253D01*
X179204Y329299D01*
Y329355D01*
X179195Y329419D01*
X179167Y329567D01*
X179121Y329743D01*
X179056Y329919D01*
X178964Y330085D01*
X178834Y330242D01*
Y330251D01*
X178816Y330261D01*
X178770Y330307D01*
X178686Y330372D01*
X178575Y330446D01*
X178428Y330510D01*
X178261Y330575D01*
X178067Y330621D01*
X177956Y330640D01*
X177780D01*
X177706Y330630D01*
X177614Y330621D01*
X177503Y330593D01*
X177392Y330566D01*
X177272Y330519D01*
X177152Y330464D01*
X177142Y330455D01*
X177105Y330436D01*
X177050Y330390D01*
X176976Y330344D01*
X176902Y330279D01*
X176828Y330196D01*
X176745Y330113D01*
X176680Y330011D01*
X175940Y330113D01*
X176560Y333404D01*
X179740D01*
Y332655D01*
D02*
G37*
G36*
X172298Y333478D02*
X172483Y333469D01*
X172668Y333450D01*
X172852Y333423D01*
X173010Y333395D01*
X173019D01*
X173037Y333386D01*
X173065D01*
X173102Y333367D01*
X173204Y333339D01*
X173333Y333293D01*
X173481Y333228D01*
X173638Y333145D01*
X173796Y333053D01*
X173943Y332933D01*
X173953Y332923D01*
X173962Y332914D01*
X173990Y332886D01*
X174027Y332859D01*
X174119Y332766D01*
X174230Y332637D01*
X174350Y332480D01*
X174480Y332295D01*
X174600Y332082D01*
X174702Y331842D01*
Y331832D01*
X174711Y331814D01*
X174729Y331777D01*
X174739Y331721D01*
X174766Y331657D01*
X174785Y331583D01*
X174803Y331499D01*
X174831Y331398D01*
X174859Y331296D01*
X174877Y331176D01*
X174923Y330917D01*
X174951Y330630D01*
X174960Y330316D01*
Y330307D01*
Y330288D01*
Y330242D01*
Y330196D01*
X174951Y330131D01*
Y330057D01*
X174942Y329882D01*
X174914Y329678D01*
X174886Y329465D01*
X174840Y329244D01*
X174785Y329022D01*
Y329012D01*
X174776Y328994D01*
X174766Y328966D01*
X174757Y328929D01*
X174720Y328828D01*
X174665Y328698D01*
X174609Y328550D01*
X174535Y328402D01*
X174443Y328245D01*
X174350Y328097D01*
X174341Y328079D01*
X174304Y328032D01*
X174249Y327968D01*
X174175Y327884D01*
X174091Y327792D01*
X173990Y327700D01*
X173888Y327598D01*
X173768Y327515D01*
X173749Y327505D01*
X173712Y327478D01*
X173648Y327441D01*
X173555Y327394D01*
X173444Y327339D01*
X173315Y327293D01*
X173167Y327237D01*
X173000Y327191D01*
X172982D01*
X172954Y327182D01*
X172926Y327173D01*
X172834Y327163D01*
X172705Y327145D01*
X172557Y327126D01*
X172381Y327108D01*
X172187Y327099D01*
X171974Y327089D01*
X169672D01*
Y333487D01*
X172131D01*
X172298Y333478D01*
D02*
G37*
G36*
X416813Y196708D02*
X407557D01*
X407534D01*
X407464D01*
X407349D01*
X407210D01*
X407048Y196684D01*
X406839D01*
X406400Y196661D01*
X405891Y196615D01*
X405382Y196546D01*
X404896Y196453D01*
X404688Y196407D01*
X404479Y196337D01*
X404433Y196314D01*
X404317Y196268D01*
X404155Y196152D01*
X403924Y196013D01*
X403693Y195851D01*
X403438Y195620D01*
X403184Y195342D01*
X402975Y195018D01*
X402952Y194972D01*
X402883Y194856D01*
X402813Y194648D01*
X402721Y194370D01*
X402605Y194046D01*
X402536Y193630D01*
X402466Y193190D01*
X402443Y192704D01*
Y192473D01*
X402466Y192334D01*
Y192126D01*
X402489Y191918D01*
X402582Y191409D01*
X402698Y190853D01*
X402883Y190321D01*
X403137Y189812D01*
X403299Y189581D01*
X403484Y189372D01*
X403507Y189349D01*
X403531Y189326D01*
X403600Y189280D01*
X403693Y189210D01*
X403831Y189141D01*
X403970Y189048D01*
X404179Y188956D01*
X404387Y188863D01*
X404641Y188771D01*
X404942Y188701D01*
X405289Y188609D01*
X405659Y188539D01*
X406076Y188470D01*
X406516Y188424D01*
X407025Y188377D01*
X407557D01*
X416813D01*
Y186248D01*
X407557D01*
X407534D01*
X407441D01*
X407326D01*
X407164D01*
X406955Y186272D01*
X406724D01*
X406446Y186295D01*
X406169Y186318D01*
X405544Y186387D01*
X404896Y186480D01*
X404271Y186619D01*
X403970Y186711D01*
X403693Y186804D01*
X403669D01*
X403623Y186827D01*
X403554Y186873D01*
X403461Y186920D01*
X403207Y187058D01*
X402883Y187267D01*
X402513Y187544D01*
X402142Y187868D01*
X401749Y188285D01*
X401402Y188794D01*
Y188817D01*
X401356Y188863D01*
X401332Y188933D01*
X401263Y189048D01*
X401194Y189187D01*
X401124Y189372D01*
X401055Y189557D01*
X400962Y189789D01*
X400870Y190043D01*
X400800Y190321D01*
X400731Y190622D01*
X400661Y190969D01*
X400615Y191316D01*
X400569Y191686D01*
X400522Y192519D01*
Y192728D01*
X400546Y192890D01*
Y193075D01*
X400569Y193306D01*
X400592Y193561D01*
X400615Y193815D01*
X400708Y194394D01*
X400846Y195018D01*
X401032Y195620D01*
X401286Y196199D01*
Y196222D01*
X401332Y196268D01*
X401379Y196337D01*
X401425Y196430D01*
X401610Y196684D01*
X401865Y196985D01*
X402188Y197332D01*
X402559Y197656D01*
X403022Y197980D01*
X403531Y198235D01*
X403554D01*
X403600Y198258D01*
X403693Y198281D01*
X403808Y198327D01*
X403947Y198374D01*
X404132Y198420D01*
X404341Y198489D01*
X404595Y198536D01*
X404873Y198582D01*
X405173Y198651D01*
X405498Y198697D01*
X405845Y198744D01*
X406238Y198790D01*
X406654Y198813D01*
X407094Y198836D01*
X407557D01*
X416813D01*
Y196708D01*
D02*
G37*
G36*
X405659Y183518D02*
X405798D01*
X405960Y183495D01*
X406330Y183449D01*
X406747Y183356D01*
X407164Y183217D01*
X407603Y183009D01*
X408020Y182754D01*
X408043D01*
X408066Y182708D01*
X408182Y182616D01*
X408367Y182430D01*
X408598Y182176D01*
X408829Y181852D01*
X409084Y181459D01*
X409292Y181019D01*
X409454Y180487D01*
Y180510D01*
X409477Y180533D01*
X409501Y180602D01*
X409547Y180695D01*
X409639Y180903D01*
X409778Y181181D01*
X409963Y181482D01*
X410195Y181783D01*
X410449Y182060D01*
X410727Y182315D01*
X410773Y182338D01*
X410866Y182407D01*
X411051Y182500D01*
X411282Y182593D01*
X411583Y182708D01*
X411930Y182801D01*
X412324Y182870D01*
X412740Y182893D01*
X412763D01*
X412809D01*
X412902D01*
X413041Y182870D01*
X413180Y182847D01*
X413365Y182824D01*
X413758Y182731D01*
X414221Y182593D01*
X414707Y182361D01*
X414962Y182222D01*
X415216Y182060D01*
X415447Y181852D01*
X415679Y181644D01*
X415702Y181621D01*
X415725Y181574D01*
X415794Y181505D01*
X415864Y181412D01*
X415956Y181297D01*
X416049Y181135D01*
X416165Y180950D01*
X416280Y180765D01*
X416396Y180533D01*
X416512Y180279D01*
X416604Y180001D01*
X416697Y179700D01*
X416836Y179052D01*
X416859Y178682D01*
X416882Y178312D01*
Y178104D01*
X416859Y177965D01*
X416836Y177780D01*
X416813Y177571D01*
X416790Y177340D01*
X416720Y177108D01*
X416581Y176553D01*
X416373Y175998D01*
X416234Y175720D01*
X416072Y175442D01*
X415864Y175188D01*
X415656Y174933D01*
X415633Y174910D01*
X415609Y174887D01*
X415540Y174818D01*
X415447Y174725D01*
X415309Y174633D01*
X415170Y174517D01*
X414823Y174286D01*
X414383Y174054D01*
X413874Y173846D01*
X413295Y173684D01*
X412995Y173661D01*
X412671Y173638D01*
X412648D01*
X412624D01*
X412486D01*
X412277Y173661D01*
X412023Y173707D01*
X411699Y173776D01*
X411375Y173892D01*
X411051Y174031D01*
X410727Y174239D01*
X410681Y174262D01*
X410588Y174355D01*
X410449Y174494D01*
X410264Y174679D01*
X410056Y174933D01*
X409848Y175234D01*
X409639Y175581D01*
X409454Y175998D01*
Y175975D01*
X409431Y175928D01*
X409408Y175859D01*
X409362Y175766D01*
X409246Y175489D01*
X409084Y175165D01*
X408853Y174818D01*
X408598Y174447D01*
X408274Y174100D01*
X407904Y173776D01*
X407881D01*
X407858Y173753D01*
X407719Y173661D01*
X407487Y173522D01*
X407187Y173383D01*
X406816Y173244D01*
X406377Y173105D01*
X405891Y173013D01*
X405359Y172990D01*
X405336D01*
X405266D01*
X405150D01*
X405011Y173013D01*
X404850Y173036D01*
X404641Y173059D01*
X404410Y173105D01*
X404155Y173175D01*
X403623Y173337D01*
X403322Y173452D01*
X403045Y173614D01*
X402744Y173776D01*
X402466Y173962D01*
X402188Y174193D01*
X401911Y174447D01*
X401888Y174471D01*
X401841Y174517D01*
X401772Y174586D01*
X401703Y174702D01*
X401587Y174864D01*
X401471Y175026D01*
X401356Y175234D01*
X401217Y175466D01*
X401078Y175720D01*
X400962Y176021D01*
X400846Y176345D01*
X400731Y176669D01*
X400661Y177039D01*
X400592Y177432D01*
X400546Y177826D01*
X400522Y178265D01*
Y178497D01*
X400546Y178659D01*
X400569Y178867D01*
X400592Y179098D01*
X400638Y179353D01*
X400708Y179631D01*
X400870Y180255D01*
X400985Y180579D01*
X401101Y180880D01*
X401263Y181204D01*
X401448Y181528D01*
X401656Y181829D01*
X401911Y182107D01*
X401934Y182130D01*
X401980Y182176D01*
X402050Y182245D01*
X402165Y182338D01*
X402304Y182430D01*
X402466Y182569D01*
X402651Y182685D01*
X402883Y182824D01*
X403114Y182963D01*
X403392Y183078D01*
X403970Y183310D01*
X404317Y183402D01*
X404664Y183472D01*
X405035Y183518D01*
X405405Y183541D01*
X405428D01*
X405474D01*
X405567D01*
X405659Y183518D01*
D02*
G37*
G36*
X74201Y479268D02*
X75070D01*
Y478547D01*
X74201D01*
Y477012D01*
X73415D01*
Y478547D01*
X70632D01*
Y479268D01*
X73562Y483410D01*
X74201D01*
Y479268D01*
D02*
G37*
G36*
X67396Y483401D02*
X67581Y483391D01*
X67765Y483373D01*
X67951Y483345D01*
X68108Y483317D01*
X68117D01*
X68135Y483308D01*
X68163D01*
X68200Y483290D01*
X68302Y483262D01*
X68431Y483216D01*
X68579Y483151D01*
X68736Y483068D01*
X68893Y482975D01*
X69041Y482855D01*
X69051Y482846D01*
X69060Y482837D01*
X69088Y482809D01*
X69125Y482781D01*
X69217Y482689D01*
X69328Y482559D01*
X69448Y482402D01*
X69578Y482217D01*
X69698Y482005D01*
X69800Y481764D01*
Y481755D01*
X69809Y481736D01*
X69827Y481699D01*
X69837Y481644D01*
X69864Y481579D01*
X69883Y481505D01*
X69901Y481422D01*
X69929Y481320D01*
X69957Y481219D01*
X69975Y481099D01*
X70022Y480840D01*
X70049Y480553D01*
X70058Y480239D01*
Y480229D01*
Y480211D01*
Y480165D01*
Y480118D01*
X70049Y480054D01*
Y479980D01*
X70040Y479804D01*
X70012Y479601D01*
X69984Y479388D01*
X69938Y479166D01*
X69883Y478944D01*
Y478935D01*
X69873Y478917D01*
X69864Y478889D01*
X69855Y478852D01*
X69818Y478750D01*
X69763Y478621D01*
X69707Y478473D01*
X69633Y478325D01*
X69541Y478168D01*
X69448Y478020D01*
X69439Y478001D01*
X69402Y477955D01*
X69346Y477890D01*
X69273Y477807D01*
X69189Y477715D01*
X69088Y477622D01*
X68986Y477520D01*
X68866Y477437D01*
X68847Y477428D01*
X68810Y477400D01*
X68746Y477363D01*
X68653Y477317D01*
X68542Y477262D01*
X68413Y477215D01*
X68265Y477160D01*
X68098Y477114D01*
X68080D01*
X68052Y477104D01*
X68024Y477095D01*
X67932Y477086D01*
X67803Y477067D01*
X67655Y477049D01*
X67479Y477030D01*
X67285Y477021D01*
X67072Y477012D01*
X64770D01*
Y483410D01*
X67229D01*
X67396Y483401D01*
D02*
G37*
%LPC*%
G36*
X413810Y684582D02*
X412331D01*
Y679700D01*
X413847D01*
X413912Y679709D01*
X414050Y679719D01*
X414207Y679728D01*
X414374Y679746D01*
X414540Y679774D01*
X414679Y679811D01*
X414697Y679820D01*
X414744Y679830D01*
X414808Y679857D01*
X414892Y679894D01*
X414984Y679950D01*
X415076Y680005D01*
X415169Y680070D01*
X415261Y680144D01*
X415271Y680162D01*
X415308Y680199D01*
X415363Y680264D01*
X415428Y680357D01*
X415502Y680477D01*
X415585Y680615D01*
X415659Y680773D01*
X415724Y680948D01*
Y680957D01*
X415733Y680976D01*
X415742Y681004D01*
X415751Y681041D01*
X415761Y681087D01*
X415779Y681152D01*
X415798Y681216D01*
X415816Y681290D01*
X415844Y681475D01*
X415872Y681688D01*
X415890Y681928D01*
X415899Y682187D01*
Y682197D01*
Y682233D01*
Y682280D01*
X415890Y682354D01*
Y682437D01*
X415881Y682529D01*
X415872Y682640D01*
X415862Y682751D01*
X415816Y683001D01*
X415761Y683260D01*
X415677Y683500D01*
X415622Y683620D01*
X415566Y683722D01*
Y683731D01*
X415548Y683750D01*
X415530Y683777D01*
X415511Y683814D01*
X415437Y683907D01*
X415345Y684018D01*
X415224Y684138D01*
X415086Y684258D01*
X414929Y684360D01*
X414762Y684443D01*
X414744Y684452D01*
X414697Y684462D01*
X414614Y684489D01*
X414494Y684517D01*
X414346Y684536D01*
X414161Y684563D01*
X414050Y684573D01*
X413930D01*
X413810Y684582D01*
D02*
G37*
G36*
X333016Y29039D02*
X329992Y24740D01*
X333016D01*
Y29039D01*
D02*
G37*
G36*
X373978Y111548D02*
X371963Y108682D01*
X373978D01*
Y111548D01*
D02*
G37*
G36*
X172002Y332729D02*
X170523D01*
Y327848D01*
X172039D01*
X172104Y327857D01*
X172242Y327866D01*
X172399Y327875D01*
X172566Y327894D01*
X172732Y327921D01*
X172871Y327958D01*
X172889Y327968D01*
X172936Y327977D01*
X173000Y328005D01*
X173084Y328042D01*
X173176Y328097D01*
X173269Y328153D01*
X173361Y328217D01*
X173453Y328291D01*
X173463Y328310D01*
X173500Y328347D01*
X173555Y328411D01*
X173620Y328504D01*
X173694Y328624D01*
X173777Y328763D01*
X173851Y328920D01*
X173916Y329096D01*
Y329105D01*
X173925Y329123D01*
X173934Y329151D01*
X173943Y329188D01*
X173953Y329234D01*
X173971Y329299D01*
X173990Y329364D01*
X174008Y329438D01*
X174036Y329623D01*
X174064Y329835D01*
X174082Y330076D01*
X174091Y330335D01*
Y330344D01*
Y330381D01*
Y330427D01*
X174082Y330501D01*
Y330584D01*
X174073Y330677D01*
X174064Y330788D01*
X174054Y330899D01*
X174008Y331148D01*
X173953Y331407D01*
X173869Y331647D01*
X173814Y331768D01*
X173759Y331869D01*
Y331879D01*
X173740Y331897D01*
X173722Y331925D01*
X173703Y331962D01*
X173629Y332054D01*
X173537Y332165D01*
X173416Y332285D01*
X173278Y332406D01*
X173121Y332507D01*
X172954Y332590D01*
X172936Y332600D01*
X172889Y332609D01*
X172806Y332637D01*
X172686Y332664D01*
X172538Y332683D01*
X172353Y332711D01*
X172242Y332720D01*
X172122D01*
X172002Y332729D01*
D02*
G37*
G36*
X412786Y180880D02*
X412763D01*
X412740D01*
X412601Y180857D01*
X412393Y180834D01*
X412138Y180788D01*
X411838Y180695D01*
X411537Y180579D01*
X411213Y180394D01*
X410935Y180163D01*
X410912Y180140D01*
X410820Y180024D01*
X410704Y179862D01*
X410588Y179654D01*
X410449Y179376D01*
X410334Y179052D01*
X410241Y178682D01*
X410218Y178265D01*
Y178219D01*
X410241Y178080D01*
X410264Y177872D01*
X410311Y177594D01*
X410403Y177294D01*
X410519Y176993D01*
X410704Y176669D01*
X410935Y176391D01*
X410958Y176368D01*
X411074Y176276D01*
X411213Y176160D01*
X411421Y176021D01*
X411676Y175882D01*
X411977Y175766D01*
X412324Y175674D01*
X412694Y175651D01*
X412717D01*
X412740D01*
X412879D01*
X413087Y175697D01*
X413342Y175743D01*
X413619Y175836D01*
X413920Y175975D01*
X414221Y176160D01*
X414522Y176414D01*
X414545Y176437D01*
X414637Y176553D01*
X414753Y176715D01*
X414892Y176923D01*
X415031Y177201D01*
X415147Y177502D01*
X415239Y177872D01*
X415262Y178265D01*
Y178451D01*
X415216Y178659D01*
X415170Y178937D01*
X415077Y179237D01*
X414962Y179561D01*
X414776Y179862D01*
X414522Y180163D01*
X414499Y180186D01*
X414406Y180279D01*
X414244Y180394D01*
X414036Y180510D01*
X413781Y180649D01*
X413481Y180765D01*
X413157Y180857D01*
X412786Y180880D01*
D02*
G37*
G36*
X405405Y181528D02*
X405359D01*
X405266D01*
X405104Y181505D01*
X404896Y181482D01*
X404641Y181436D01*
X404364Y181366D01*
X404086Y181274D01*
X403785Y181158D01*
X403762Y181135D01*
X403646Y181089D01*
X403507Y180996D01*
X403345Y180857D01*
X403137Y180695D01*
X402929Y180487D01*
X402744Y180255D01*
X402559Y179978D01*
X402536Y179932D01*
X402489Y179839D01*
X402420Y179677D01*
X402351Y179469D01*
X402281Y179214D01*
X402212Y178913D01*
X402165Y178589D01*
X402142Y178265D01*
Y178127D01*
X402165Y178034D01*
X402188Y177756D01*
X402258Y177432D01*
X402374Y177062D01*
X402513Y176669D01*
X402744Y176299D01*
X403045Y175928D01*
X403091Y175882D01*
X403207Y175790D01*
X403415Y175628D01*
X403669Y175466D01*
X403993Y175304D01*
X404387Y175142D01*
X404850Y175049D01*
X405336Y175003D01*
X405359D01*
X405405D01*
X405474D01*
X405567Y175026D01*
X405821Y175049D01*
X406169Y175119D01*
X406516Y175234D01*
X406909Y175396D01*
X407302Y175628D01*
X407673Y175951D01*
X407719Y175998D01*
X407811Y176113D01*
X407973Y176322D01*
X408158Y176599D01*
X408321Y176947D01*
X408482Y177363D01*
X408575Y177826D01*
X408621Y178335D01*
Y178474D01*
X408598Y178566D01*
X408575Y178821D01*
X408506Y179145D01*
X408390Y179515D01*
X408228Y179885D01*
X407996Y180279D01*
X407696Y180626D01*
X407649Y180672D01*
X407534Y180765D01*
X407326Y180903D01*
X407071Y181065D01*
X406724Y181250D01*
X406330Y181389D01*
X405891Y181482D01*
X405405Y181528D01*
D02*
G37*
G36*
X73415Y482134D02*
X71399Y479268D01*
X73415D01*
Y482134D01*
D02*
G37*
G36*
X67100Y482652D02*
X65621D01*
Y477770D01*
X67137D01*
X67202Y477779D01*
X67340Y477789D01*
X67497Y477798D01*
X67664Y477816D01*
X67830Y477844D01*
X67969Y477881D01*
X67987Y477890D01*
X68034Y477900D01*
X68098Y477927D01*
X68182Y477964D01*
X68274Y478020D01*
X68366Y478075D01*
X68459Y478140D01*
X68551Y478214D01*
X68561Y478232D01*
X68598Y478269D01*
X68653Y478334D01*
X68718Y478427D01*
X68792Y478547D01*
X68875Y478685D01*
X68949Y478843D01*
X69014Y479018D01*
Y479027D01*
X69023Y479046D01*
X69032Y479074D01*
X69041Y479111D01*
X69051Y479157D01*
X69069Y479222D01*
X69088Y479286D01*
X69106Y479360D01*
X69134Y479545D01*
X69162Y479758D01*
X69180Y479998D01*
X69189Y480257D01*
Y480266D01*
Y480303D01*
Y480350D01*
X69180Y480424D01*
Y480507D01*
X69171Y480599D01*
X69162Y480710D01*
X69152Y480821D01*
X69106Y481071D01*
X69051Y481330D01*
X68967Y481570D01*
X68912Y481690D01*
X68857Y481792D01*
Y481801D01*
X68838Y481820D01*
X68819Y481847D01*
X68801Y481884D01*
X68727Y481977D01*
X68635Y482088D01*
X68514Y482208D01*
X68376Y482328D01*
X68219Y482430D01*
X68052Y482513D01*
X68034Y482522D01*
X67987Y482532D01*
X67904Y482559D01*
X67784Y482587D01*
X67636Y482606D01*
X67451Y482633D01*
X67340Y482643D01*
X67220D01*
X67100Y482652D01*
D02*
G37*
%LPD*%
D10*
X48184Y483662D02*
G03*
X48184Y483662I-762J0D01*
G01*
X-5410Y435910D02*
X-2870Y438450D01*
X-5410Y440990D02*
X-2870Y438450D01*
X-7950D02*
X-2870D01*
X-5410Y489250D02*
X-2870Y491790D01*
X-5410Y494330D02*
X-2870Y491790D01*
X-7950D02*
X-2870D01*
X1194D02*
X3734Y494330D01*
X1194Y491790D02*
X3734Y489250D01*
X1194Y491790D02*
X6274D01*
X1194Y438450D02*
X3734Y440990D01*
X1194Y438450D02*
X3734Y435910D01*
X1194Y438450D02*
X6274D01*
X31926Y499410D02*
X25070D01*
X28498D01*
Y494840D01*
X31926D01*
X25070D01*
Y487984D02*
Y492554D01*
X29641Y487984D01*
X30783D01*
X31926Y489126D01*
Y491412D01*
X30783Y492554D01*
X467612Y111506D02*
X459994Y106428D01*
X467612D02*
X459994Y111506D01*
X466342Y103889D02*
X467612Y102619D01*
Y100080D01*
X466342Y98810D01*
X465072D01*
X463803Y100080D01*
Y101349D01*
Y100080D01*
X462533Y98810D01*
X461264D01*
X459994Y100080D01*
Y102619D01*
X461264Y103889D01*
D12*
X465443Y425623D02*
G03*
X465443Y425623I-1295J0D01*
G01*
X481598Y291603D02*
G03*
X481598Y291603I-1078J0D01*
G01*
X610322Y172120D02*
G03*
X610322Y172120I-1118J0D01*
G01*
X349250Y281038D02*
X417830D01*
X349250Y350887D02*
X417830D01*
Y281038D02*
Y350887D01*
X349250Y281038D02*
Y350887D01*
X651777Y288812D02*
X705117D01*
X651777Y235472D02*
X705117D01*
Y288812D01*
X651777Y235472D02*
Y288812D01*
X354330Y301353D02*
Y286117D01*
Y293735D01*
X364487D01*
Y301353D01*
Y286117D01*
X369565Y298813D02*
X372104Y301353D01*
X377183D01*
X379722Y298813D01*
Y296274D01*
X377183Y293735D01*
X374643D01*
X377183D01*
X379722Y291196D01*
Y288657D01*
X377183Y286117D01*
X372104D01*
X369565Y288657D01*
X656857Y279662D02*
Y266966D01*
X659396Y264427D01*
X664474D01*
X667013Y266966D01*
Y279662D01*
X682248Y264427D02*
X672092D01*
X682248Y274584D01*
Y277123D01*
X679709Y279662D01*
X674631D01*
X672092Y277123D01*
D13*
X393260Y592062D02*
G03*
X393260Y592062I-5000J0D01*
G01*
X373219Y41510D02*
G03*
X373219Y41510I-4135J0D01*
G01*
X466312Y191046D02*
G03*
X466312Y191046I-5000J0D01*
G01*
X395270Y254107D02*
Y263607D01*
X412770Y254107D02*
Y263607D01*
X395270D02*
X412770D01*
X395270Y254107D02*
X412770D01*
X379260Y564562D02*
Y601063D01*
X415760Y564562D02*
Y601063D01*
X379260D02*
X415760D01*
X379260Y564562D02*
X415760D01*
X409223Y603490D02*
X439223D01*
X409223Y633490D02*
X439223D01*
Y603490D02*
Y633490D01*
X409223Y603490D02*
Y633490D01*
X397938Y616340D02*
Y633340D01*
X388938Y616340D02*
Y633340D01*
X397938D01*
X388938Y616340D02*
X397938D01*
X376000Y615840D02*
X386000D01*
X376000Y633840D02*
X386000D01*
X376000Y615840D02*
Y633840D01*
X386000Y615840D02*
Y633840D01*
X353196Y577270D02*
X370196D01*
X353196Y568270D02*
X370196D01*
X353196D02*
Y577270D01*
X370196Y568270D02*
Y577270D01*
X371870Y587550D02*
Y617550D01*
X341870Y587550D02*
Y617550D01*
X371870D01*
X341870Y587550D02*
X371870D01*
X415362Y535037D02*
Y552038D01*
X424362Y535037D02*
Y552038D01*
X415362Y535037D02*
X424362D01*
X415362Y552038D02*
X424362D01*
X409258Y681316D02*
X411408Y683466D01*
X409258Y677466D02*
Y683768D01*
Y677466D02*
X417258D01*
Y683768D01*
X409258D02*
X417258D01*
X290970Y618340D02*
X308470D01*
X290970D02*
Y631340D01*
X308470D01*
Y618340D02*
Y631340D01*
X303220Y618340D02*
X308470Y623590D01*
X290970Y583288D02*
X308470D01*
X290970D02*
Y596288D01*
X308470D01*
Y583288D02*
Y596288D01*
X303220Y583288D02*
X308470Y588538D01*
X401481Y520882D02*
X418480D01*
X401481Y511882D02*
X418480D01*
X401481D02*
Y520882D01*
X418480Y511882D02*
Y520882D01*
X404504Y659710D02*
X421504D01*
X404504Y668710D02*
X421504D01*
Y659710D02*
Y668710D01*
X404504Y659710D02*
Y668710D01*
X443992Y726440D02*
Y751840D01*
X391292D02*
X443992D01*
X391292Y726440D02*
X443484D01*
X391292D02*
Y751840D01*
X489720Y722308D02*
X506720D01*
X489720Y731308D02*
X506720D01*
Y722308D02*
Y731308D01*
X489720Y722308D02*
Y731308D01*
X333430Y589670D02*
Y606670D01*
X324430Y589670D02*
Y606670D01*
X333430D01*
X324430Y589670D02*
X333430D01*
X388421Y499754D02*
Y516754D01*
X379421Y499754D02*
Y516754D01*
X388421D01*
X379421Y499754D02*
X388421D01*
X460591Y619650D02*
X470591D01*
X460591Y637650D02*
X470591D01*
X460591Y619650D02*
Y637650D01*
X470591Y619650D02*
Y637650D01*
X312696Y19666D02*
X379752D01*
X312696Y56496D02*
X379752D01*
Y19666D02*
Y56496D01*
X312696Y19666D02*
Y56496D01*
X450699Y534401D02*
Y551401D01*
X441699Y534401D02*
Y551401D01*
X450699D01*
X441699Y534401D02*
X450699D01*
X437460Y566302D02*
Y583302D01*
X446460Y566302D02*
Y583302D01*
X437460Y566302D02*
X446460D01*
X437460Y583302D02*
X446460D01*
X478210Y550808D02*
Y567808D01*
X469210Y550808D02*
Y567808D01*
X478210D01*
X469210Y550808D02*
X478210D01*
X382660Y525090D02*
X399660D01*
X382660Y534090D02*
X399660D01*
Y525090D02*
Y534090D01*
X382660Y525090D02*
Y534090D01*
X459208Y399197D02*
X476708D01*
X459208Y429697D02*
X476708D01*
Y399197D02*
Y429697D01*
X459208Y399197D02*
Y429697D01*
X495690Y417144D02*
X512690D01*
X495690Y426144D02*
X512690D01*
Y417144D02*
Y426144D01*
X495690Y417144D02*
Y426144D01*
X414410Y244538D02*
X431410D01*
X414410Y235537D02*
X431410D01*
X414410D02*
Y244538D01*
X431410Y235537D02*
Y244538D01*
X415426Y228305D02*
X432426D01*
X415426Y219305D02*
X432426D01*
X415426D02*
Y228305D01*
X432426Y219305D02*
Y228305D01*
X434730Y44769D02*
X451730D01*
X434730Y53769D02*
X451730D01*
Y44769D02*
Y53769D01*
X434730Y44769D02*
Y53769D01*
X430918Y73018D02*
X452417D01*
X430918Y59018D02*
X452417D01*
X430918D02*
Y73018D01*
X452417Y59018D02*
Y73018D01*
X366958Y79130D02*
Y96130D01*
X357958Y79130D02*
Y96130D01*
X366958D01*
X357958Y79130D02*
X366958D01*
X364880Y127436D02*
X381880D01*
X364880Y118436D02*
X381880D01*
X364880D02*
Y127436D01*
X381880Y118436D02*
Y127436D01*
X350362Y75320D02*
Y92320D01*
X341362Y75320D02*
Y92320D01*
X350362D01*
X341362Y75320D02*
X350362D01*
X333477Y74825D02*
Y91825D01*
X324477Y74825D02*
Y91825D01*
X333477D01*
X324477Y74825D02*
X333477D01*
X364630Y104470D02*
Y113970D01*
X382130Y104470D02*
Y113970D01*
X364630D02*
X382130D01*
X364630Y104470D02*
X382130D01*
X589970Y283739D02*
Y300739D01*
X580970Y283739D02*
Y300739D01*
X589970D01*
X580970Y283739D02*
X589970D01*
X533913Y288319D02*
Y322319D01*
X476913Y288319D02*
Y322319D01*
X533913D01*
X476913Y288319D02*
X533913D01*
X517280Y329764D02*
X534280D01*
X517280Y338764D02*
X534280D01*
Y329764D02*
Y338764D01*
X517280Y329764D02*
Y338764D01*
X461400Y261692D02*
X478400D01*
X461400Y270692D02*
X478400D01*
Y261692D02*
Y270692D01*
X461400Y261692D02*
Y270692D01*
X523747Y348954D02*
Y370454D01*
X509747Y348954D02*
Y370454D01*
X523747D01*
X509747Y348954D02*
X523747D01*
X503618Y339480D02*
Y356480D01*
X494618Y339480D02*
Y356480D01*
X503618D01*
X494618Y339480D02*
X503618D01*
X485276Y244530D02*
X502276D01*
X485276Y235530D02*
X502276D01*
X485276D02*
Y244530D01*
X502276Y235530D02*
Y244530D01*
X478164Y257230D02*
X495164D01*
X478164Y248230D02*
X495164D01*
X478164D02*
Y257230D01*
X495164Y248230D02*
Y257230D01*
X415870Y405520D02*
Y422520D01*
X424870Y405520D02*
Y422520D01*
X415870Y405520D02*
X424870D01*
X415870Y422520D02*
X424870D01*
X455540Y590518D02*
Y599519D01*
X438540Y590518D02*
Y599519D01*
Y590518D02*
X455540D01*
X438540Y599519D02*
X455540D01*
X471306Y585398D02*
X488306D01*
X471306Y576398D02*
X488306D01*
X471306D02*
Y585398D01*
X488306Y576398D02*
Y585398D01*
X272170Y676330D02*
X289170D01*
X272170Y667330D02*
X289170D01*
X272170D02*
Y676330D01*
X289170Y667330D02*
Y676330D01*
X167450Y329352D02*
X169600Y331502D01*
X167450Y325502D02*
Y331804D01*
Y325502D02*
X175450D01*
Y331804D01*
X167450D02*
X175450D01*
X284870Y330752D02*
X301870D01*
X284870Y321753D02*
X301870D01*
X284870D02*
Y330752D01*
X301870Y321753D02*
Y330752D01*
X161870Y297210D02*
Y314210D01*
X170870Y297210D02*
Y314210D01*
X161870Y297210D02*
X170870D01*
X161870Y314210D02*
X170870D01*
X626704Y168370D02*
Y189370D01*
X605704Y168370D02*
Y189370D01*
X626704D01*
X605704Y168370D02*
X626704D01*
X548736Y89282D02*
X557736D01*
X548736Y72281D02*
X557736D01*
Y89282D01*
X548736Y72281D02*
Y89282D01*
X399313Y129046D02*
Y200046D01*
X470312Y129046D02*
Y200046D01*
X399313Y129046D02*
X470312D01*
X399313Y200046D02*
X470312D01*
X509555Y135200D02*
Y144200D01*
X492555Y135200D02*
Y144200D01*
Y135200D02*
X509555D01*
X492555Y144200D02*
X509555D01*
X490215Y53711D02*
X542030D01*
X490215Y105527D02*
X542030D01*
Y53711D02*
Y105527D01*
X490215Y53711D02*
Y105527D01*
X612594Y199382D02*
X621594D01*
X612594Y216383D02*
X621594D01*
X612594Y199382D02*
Y216383D01*
X621594Y199382D02*
Y216383D01*
X689220Y308050D02*
Y317050D01*
X672220Y308050D02*
Y317050D01*
Y308050D02*
X689220D01*
X672220Y317050D02*
X689220D01*
X634610Y232990D02*
Y241990D01*
X617610Y232990D02*
Y241990D01*
Y232990D02*
X634610D01*
X617610Y241990D02*
X634610D01*
X381372Y134938D02*
Y143939D01*
X364372Y134938D02*
Y143939D01*
Y134938D02*
X381372D01*
X364372Y143939D02*
X381372D01*
X520558Y138040D02*
X529557D01*
X520558Y121040D02*
X529557D01*
Y138040D01*
X520558Y121040D02*
Y138040D01*
X444211Y84240D02*
Y93240D01*
X427211Y84240D02*
Y93240D01*
Y84240D02*
X444211D01*
X427211Y93240D02*
X444211D01*
X517280Y154805D02*
Y163805D01*
X534280Y154805D02*
Y163805D01*
X517280D02*
X534280D01*
X517280Y154805D02*
X534280D01*
X516010Y174848D02*
Y183848D01*
X533010Y174848D02*
Y183848D01*
X516010D02*
X533010D01*
X516010Y174848D02*
X533010D01*
X535060Y192350D02*
Y201350D01*
X552060Y192350D02*
Y201350D01*
X535060D02*
X552060D01*
X535060Y192350D02*
X552060D01*
X539100Y138972D02*
X553100D01*
X539100Y117472D02*
X553100D01*
Y138972D01*
X539100Y117472D02*
Y138972D01*
X641930Y171840D02*
X650930D01*
X641930Y188840D02*
X650930D01*
X641930Y171840D02*
Y188840D01*
X650930Y171840D02*
Y188840D01*
X664362Y208225D02*
Y217225D01*
X647362Y208225D02*
Y217225D01*
Y208225D02*
X664362D01*
X647362Y217225D02*
X664362D01*
X547060Y235340D02*
X556060D01*
X547060Y252340D02*
X556060D01*
X547060Y235340D02*
Y252340D01*
X556060Y235340D02*
Y252340D01*
X288662Y767660D02*
Y776660D01*
X271662Y767660D02*
Y776660D01*
Y767660D02*
X288662D01*
X271662Y776660D02*
X288662D01*
X300600Y210130D02*
Y219130D01*
X283600Y210130D02*
Y219130D01*
Y210130D02*
X300600D01*
X283600Y219130D02*
X300600D01*
X62548Y479386D02*
X64698Y481536D01*
X62548Y475536D02*
Y481838D01*
Y475536D02*
X70548D01*
Y481838D01*
X62548D02*
X70548D01*
X350730Y174582D02*
Y185082D01*
X345230Y174582D02*
Y185082D01*
X350730D01*
X345230Y174582D02*
X350730D01*
X363050Y178518D02*
X373550D01*
X363050Y173018D02*
X373550D01*
X363050D02*
Y178518D01*
X373550Y173018D02*
Y178518D01*
X317330Y178010D02*
X327830D01*
X317330Y172510D02*
X327830D01*
X317330D02*
Y178010D01*
X327830Y172510D02*
Y178010D01*
X486520Y350600D02*
Y360600D01*
X468520Y350600D02*
Y360600D01*
Y350600D02*
X486520D01*
X468520Y360600D02*
X486520D01*
X417322Y549888D02*
X421321D01*
Y547888D01*
X420654Y547222D01*
X419321D01*
X418655Y547888D01*
Y549888D01*
Y548555D02*
X417322Y547222D01*
Y545889D02*
Y544556D01*
Y545222D01*
X421321D01*
X420654Y545889D01*
X417322Y542556D02*
Y541224D01*
Y541890D01*
X421321D01*
X420654Y542556D01*
X416330Y518922D02*
Y514923D01*
X414331D01*
X413665Y515590D01*
Y516923D01*
X414331Y517589D01*
X416330D01*
X414998D02*
X413665Y518922D01*
X412332Y515590D02*
X411665Y514923D01*
X410332D01*
X409666Y515590D01*
Y516256D01*
X410332Y516923D01*
X409666Y517589D01*
Y518256D01*
X410332Y518922D01*
X411665D01*
X412332Y518256D01*
Y517589D01*
X411665Y516923D01*
X412332Y516256D01*
Y515590D01*
X411665Y516923D02*
X410332D01*
X491870Y724268D02*
Y728267D01*
X493869D01*
X494536Y727600D01*
Y726268D01*
X493869Y725601D01*
X491870D01*
X493203D02*
X494536Y724268D01*
X498535D02*
X495869D01*
X498535Y726934D01*
Y727600D01*
X497868Y728267D01*
X496535D01*
X495869Y727600D01*
X499867D02*
X500534Y728267D01*
X501867D01*
X502533Y727600D01*
Y724935D01*
X501867Y724268D01*
X500534D01*
X499867Y724935D01*
Y727600D01*
X386460Y501904D02*
X382462D01*
Y503903D01*
X383128Y504570D01*
X384461D01*
X385128Y503903D01*
Y501904D01*
Y503237D02*
X386460Y504570D01*
Y505903D02*
Y507236D01*
Y506569D01*
X382462D01*
X383128Y505903D01*
Y509235D02*
X382462Y509901D01*
Y511234D01*
X383128Y511901D01*
X385794D01*
X386460Y511234D01*
Y509901D01*
X385794Y509235D01*
X383128D01*
X463965Y624752D02*
X463132Y623919D01*
Y622253D01*
X463965Y621420D01*
X467297D01*
X468130Y622253D01*
Y623919D01*
X467297Y624752D01*
X468130Y629751D02*
Y626418D01*
X464798Y629751D01*
X463965D01*
X463132Y628918D01*
Y627251D01*
X463965Y626418D01*
Y631417D02*
X463132Y632250D01*
Y633916D01*
X463965Y634749D01*
X464798D01*
X465631Y633916D01*
X466464Y634749D01*
X467297D01*
X468130Y633916D01*
Y632250D01*
X467297Y631417D01*
X466464D01*
X465631Y632250D01*
X464798Y631417D01*
X463965D01*
X465631Y632250D02*
Y633916D01*
X448739Y536552D02*
X444740D01*
Y538551D01*
X445407Y539217D01*
X446740D01*
X447406Y538551D01*
Y536552D01*
Y537884D02*
X448739Y539217D01*
Y540550D02*
Y541883D01*
Y541217D01*
X444740D01*
X445407Y540550D01*
Y543882D02*
X444740Y544549D01*
Y545882D01*
X445407Y546548D01*
X446073D01*
X446740Y545882D01*
Y545215D01*
Y545882D01*
X447406Y546548D01*
X448073D01*
X448739Y545882D01*
Y544549D01*
X448073Y543882D01*
X439420Y581152D02*
X443419D01*
Y579153D01*
X442752Y578486D01*
X441419D01*
X440753Y579153D01*
Y581152D01*
Y579819D02*
X439420Y578486D01*
X440086Y577153D02*
X439420Y576487D01*
Y575154D01*
X440086Y574487D01*
X442752D01*
X443419Y575154D01*
Y576487D01*
X442752Y577153D01*
X442086D01*
X441419Y576487D01*
Y574487D01*
X476250Y552958D02*
X472251D01*
Y554957D01*
X472918Y555624D01*
X474251D01*
X474917Y554957D01*
Y552958D01*
Y554291D02*
X476250Y555624D01*
Y556957D02*
Y558290D01*
Y557623D01*
X472251D01*
X472918Y556957D01*
X476250Y562955D02*
Y560289D01*
X473584Y562955D01*
X472918D01*
X472251Y562288D01*
Y560955D01*
X472918Y560289D01*
X384810Y527050D02*
Y531049D01*
X386809D01*
X387476Y530382D01*
Y529049D01*
X386809Y528383D01*
X384810D01*
X386143D02*
X387476Y527050D01*
X388809Y531049D02*
X391474D01*
Y530382D01*
X388809Y527716D01*
Y527050D01*
X436880Y46729D02*
Y50728D01*
X438879D01*
X439546Y50061D01*
Y48728D01*
X438879Y48062D01*
X436880D01*
X438213D02*
X439546Y46729D01*
X442878D02*
Y50728D01*
X440879Y48728D01*
X443545D01*
X588010Y285889D02*
X584011D01*
Y287889D01*
X584678Y288555D01*
X586011D01*
X586677Y287889D01*
Y285889D01*
Y287222D02*
X588010Y288555D01*
X584011Y292554D02*
Y289888D01*
X586011D01*
X585344Y291221D01*
Y291888D01*
X586011Y292554D01*
X587344D01*
X588010Y291888D01*
Y290555D01*
X587344Y289888D01*
X463550Y263652D02*
Y267651D01*
X465549D01*
X466216Y266984D01*
Y265651D01*
X465549Y264985D01*
X463550D01*
X464883D02*
X466216Y263652D01*
X467549Y266984D02*
X468215Y267651D01*
X469548D01*
X470215Y266984D01*
Y266318D01*
X469548Y265651D01*
X468882D01*
X469548D01*
X470215Y264985D01*
Y264318D01*
X469548Y263652D01*
X468215D01*
X467549Y264318D01*
X500126Y242570D02*
Y238571D01*
X498127D01*
X497460Y239238D01*
Y240571D01*
X498127Y241237D01*
X500126D01*
X498793D02*
X497460Y242570D01*
X496127D02*
X494794D01*
X495461D01*
Y238571D01*
X496127Y239238D01*
X492795D02*
X492129Y238571D01*
X490796D01*
X490129Y239238D01*
Y239904D01*
X490796Y240571D01*
X490129Y241237D01*
Y241904D01*
X490796Y242570D01*
X492129D01*
X492795Y241904D01*
Y241237D01*
X492129Y240571D01*
X492795Y239904D01*
Y239238D01*
X492129Y240571D02*
X490796D01*
X493014Y255270D02*
Y251271D01*
X491015D01*
X490348Y251938D01*
Y253271D01*
X491015Y253937D01*
X493014D01*
X491681D02*
X490348Y255270D01*
X489015D02*
X487682D01*
X488349D01*
Y251271D01*
X489015Y251938D01*
X485683Y251271D02*
X483017D01*
Y251938D01*
X485683Y254604D01*
Y255270D01*
X453390Y597559D02*
Y593560D01*
X451391D01*
X450724Y594226D01*
Y595559D01*
X451391Y596226D01*
X453390D01*
X452057D02*
X450724Y597559D01*
X446726Y593560D02*
X448058Y594226D01*
X449391Y595559D01*
Y596892D01*
X448725Y597559D01*
X447392D01*
X446726Y596892D01*
Y596226D01*
X447392Y595559D01*
X449391D01*
X487037Y578440D02*
Y583439D01*
X483705D01*
X478706Y578440D02*
X482038D01*
Y583439D01*
X478706D01*
X482038Y580940D02*
X480372D01*
X477040Y578440D02*
Y583439D01*
X474541D01*
X473708Y582606D01*
Y579273D01*
X474541Y578440D01*
X477040D01*
X472042Y583439D02*
X470376D01*
X471209D01*
Y578440D01*
X472042Y579273D01*
X287020Y674370D02*
Y670371D01*
X285021D01*
X284354Y671038D01*
Y672371D01*
X285021Y673037D01*
X287020D01*
X285687D02*
X284354Y674370D01*
X280355D02*
X283021D01*
X280355Y671704D01*
Y671038D01*
X281022Y670371D01*
X282355D01*
X283021Y671038D01*
X279023Y674370D02*
X277690D01*
X278356D01*
Y670371D01*
X279023Y671038D01*
X299720Y328792D02*
Y324794D01*
X297721D01*
X297054Y325460D01*
Y326793D01*
X297721Y327460D01*
X299720D01*
X298387D02*
X297054Y328792D01*
X295721D02*
X294388D01*
X295055D01*
Y324794D01*
X295721Y325460D01*
X289723Y324794D02*
X291056Y325460D01*
X292389Y326793D01*
Y328126D01*
X291723Y328792D01*
X290390D01*
X289723Y328126D01*
Y327460D01*
X290390Y326793D01*
X292389D01*
X507405Y142240D02*
Y138241D01*
X505406D01*
X504739Y138908D01*
Y140241D01*
X505406Y140907D01*
X507405D01*
X506072D02*
X504739Y142240D01*
X503406D02*
X502073D01*
X502740D01*
Y138241D01*
X503406Y138908D01*
X497408Y138241D02*
X500074D01*
Y140241D01*
X498741Y139574D01*
X498075D01*
X497408Y140241D01*
Y141574D01*
X498075Y142240D01*
X499408D01*
X500074Y141574D01*
X648970Y173990D02*
X644971D01*
Y175989D01*
X645638Y176656D01*
X646971D01*
X647637Y175989D01*
Y173990D01*
Y175323D02*
X648970Y176656D01*
Y177989D02*
Y179322D01*
Y178655D01*
X644971D01*
X645638Y177989D01*
X662212Y215265D02*
Y211266D01*
X660212D01*
X659546Y211933D01*
Y213266D01*
X660212Y213932D01*
X662212D01*
X660879D02*
X659546Y215265D01*
X655547D02*
X658213D01*
X655547Y212599D01*
Y211933D01*
X656214Y211266D01*
X657547D01*
X658213Y211933D01*
X554100Y237490D02*
X550101D01*
Y239489D01*
X550768Y240156D01*
X552101D01*
X552767Y239489D01*
Y237490D01*
Y238823D02*
X554100Y240156D01*
Y241489D02*
Y242822D01*
Y242155D01*
X550101D01*
X550768Y241489D01*
X554100Y246820D02*
X550101D01*
X552101Y244821D01*
Y247487D01*
X286512Y774700D02*
Y770701D01*
X284513D01*
X283846Y771368D01*
Y772701D01*
X284513Y773367D01*
X286512D01*
X285179D02*
X283846Y774700D01*
X279848D02*
X282513D01*
X279848Y772034D01*
Y771368D01*
X280514Y770701D01*
X281847D01*
X282513Y771368D01*
X275849Y774700D02*
X278515D01*
X275849Y772034D01*
Y771368D01*
X276515Y770701D01*
X277848D01*
X278515Y771368D01*
X298450Y217170D02*
Y213171D01*
X296451D01*
X295784Y213838D01*
Y215171D01*
X296451Y215837D01*
X298450D01*
X297117D02*
X295784Y217170D01*
X291786D02*
X294451D01*
X291786Y214504D01*
Y213838D01*
X292452Y213171D01*
X293785D01*
X294451Y213838D01*
X288453Y217170D02*
Y213171D01*
X290453Y215171D01*
X287787D01*
D14*
X367823Y225288D02*
G03*
X367823Y225288I-1000J0D01*
G01*
X379002Y624505D02*
X377335Y622839D01*
Y619506D01*
X379002Y617840D01*
X385666D01*
X387332Y619506D01*
Y622839D01*
X385666Y624505D01*
X387332Y634501D02*
Y627837D01*
X380668Y634501D01*
X379002D01*
X377335Y632835D01*
Y629503D01*
X379002Y627837D01*
X387332Y644498D02*
Y637834D01*
X380668Y644498D01*
X379002D01*
X377335Y642832D01*
Y639500D01*
X379002Y637834D01*
X366236Y235771D02*
X372901Y225774D01*
Y235771D02*
X366236Y225774D01*
X376233D02*
X379565D01*
X377899D01*
Y235771D01*
X376233Y234105D01*
X456496Y409171D02*
Y400841D01*
X458162Y399175D01*
X461494D01*
X463161Y400841D01*
Y409171D01*
X473157D02*
X469825Y407505D01*
X466493Y404173D01*
Y400841D01*
X468159Y399175D01*
X471491D01*
X473157Y400841D01*
Y402507D01*
X471491Y404173D01*
X466493D01*
X339430Y80101D02*
X337430Y78102D01*
Y74103D01*
X339430Y72104D01*
X347427D01*
X349426Y74103D01*
Y78102D01*
X347427Y80101D01*
X339430Y84100D02*
X337430Y86100D01*
Y90098D01*
X339430Y92098D01*
X341429D01*
X343428Y90098D01*
Y88099D01*
Y90098D01*
X345428Y92098D01*
X347427D01*
X349426Y90098D01*
Y86100D01*
X347427Y84100D01*
X339430Y96096D02*
X337430Y98096D01*
Y102094D01*
X339430Y104094D01*
X347427D01*
X349426Y102094D01*
Y98096D01*
X347427Y96096D01*
X339430D01*
X562693Y77134D02*
X564692Y79133D01*
Y83132D01*
X562693Y85132D01*
X554696D01*
X552696Y83132D01*
Y79133D01*
X554696Y77134D01*
X552696Y73135D02*
Y69137D01*
Y71136D01*
X564692D01*
X562693Y73135D01*
Y63139D02*
X564692Y61139D01*
Y57140D01*
X562693Y55141D01*
X560694D01*
X558694Y57140D01*
Y59140D01*
Y57140D01*
X556695Y55141D01*
X554696D01*
X552696Y57140D01*
Y61139D01*
X554696Y63139D01*
X677073Y303093D02*
X679072Y301094D01*
X683071D01*
X685070Y303093D01*
Y311091D01*
X683071Y313090D01*
X679072D01*
X677073Y311091D01*
X665076Y313090D02*
X673074D01*
X665076Y305093D01*
Y303093D01*
X667076Y301094D01*
X671075D01*
X673074Y303093D01*
X528157Y188804D02*
X526158Y190804D01*
X522159D01*
X520160Y188804D01*
Y180807D01*
X522159Y178808D01*
X526158D01*
X528157Y180807D01*
X532156Y178808D02*
X536155D01*
X534156D01*
Y190804D01*
X532156Y188804D01*
X542153Y180807D02*
X544152Y178808D01*
X548151D01*
X550150Y180807D01*
Y188804D01*
X548151Y190804D01*
X544152D01*
X542153Y188804D01*
Y186805D01*
X544152Y184806D01*
X550150D01*
X477855Y350269D02*
X479522Y348603D01*
X482854D01*
X484520Y350269D01*
Y356934D01*
X482854Y358600D01*
X479522D01*
X477855Y356934D01*
X469525Y358600D02*
Y348603D01*
X474523Y353602D01*
X467859D01*
D18*
X42140Y428120D02*
Y502120D01*
X-7860Y428120D02*
X-860D01*
X-13160Y424870D02*
X-7860Y428120D01*
X-13160Y424870D02*
Y505370D01*
X-7860Y502120D01*
X-860D02*
X42140D01*
X-860Y428120D02*
X42140D01*
X-7860Y502120D02*
X-860D01*
Y428120D02*
Y502120D01*
X459860Y115060D02*
X474860D01*
X459860Y83060D02*
Y115060D01*
Y83060D02*
X474860D01*
Y115060D01*
D162*
X363476Y221434D02*
X395476D01*
X363476Y246434D02*
X395476D01*
Y221434D02*
Y246434D01*
X363476Y221434D02*
Y246434D01*
X412523Y616037D02*
Y607040D01*
X418521D01*
X421520Y616037D02*
X427518D01*
Y614538D01*
X421520Y608540D01*
Y607040D01*
X359323Y590850D02*
X368320D01*
Y596848D01*
X359323Y605845D02*
X360822Y602846D01*
X363821Y599847D01*
X366820D01*
X368320Y601347D01*
Y604346D01*
X366820Y605845D01*
X365321D01*
X363821Y604346D01*
Y599847D01*
X504422Y77421D02*
Y68423D01*
X510421D01*
X519418Y77421D02*
X513420D01*
Y72922D01*
X516419Y74422D01*
X517918D01*
X519418Y72922D01*
Y69923D01*
X517918Y68423D01*
X514919D01*
X513420Y69923D01*
D163*
X416052Y744786D02*
Y732790D01*
Y738788D01*
X424049D01*
Y744786D01*
Y732790D01*
X428048D02*
X432047D01*
X430047D01*
Y744786D01*
X428048Y742787D01*
D164*
X445219Y66319D02*
X446218Y65319D01*
X448218D01*
X449217Y66319D01*
Y70318D01*
X448218Y71317D01*
X446218D01*
X445219Y70318D01*
X443219Y71317D02*
X441220D01*
X442220D01*
Y65319D01*
X443219Y66319D01*
X434222Y65319D02*
X436222Y66319D01*
X438221Y68318D01*
Y70318D01*
X437221Y71317D01*
X435222D01*
X434222Y70318D01*
Y69318D01*
X435222Y68318D01*
X438221D01*
X517048Y356153D02*
X516048Y355153D01*
Y353154D01*
X517048Y352154D01*
X521047D01*
X522047Y353154D01*
Y355153D01*
X521047Y356153D01*
X516048Y362151D02*
X517048Y360152D01*
X519048Y358152D01*
X521047D01*
X522047Y359152D01*
Y361151D01*
X521047Y362151D01*
X520047D01*
X519048Y361151D01*
Y358152D01*
X545798Y131774D02*
X546798Y132773D01*
Y134773D01*
X545798Y135772D01*
X541800D01*
X540800Y134773D01*
Y132773D01*
X541800Y131774D01*
X540800Y129774D02*
Y127775D01*
Y128775D01*
X546798D01*
X545798Y129774D01*
X540800Y121777D02*
X546798D01*
X543799Y124776D01*
Y120777D01*
D165*
X518078Y290817D02*
X528075D01*
X530075Y292816D01*
Y296815D01*
X528075Y298814D01*
X518078D01*
X520078Y302813D02*
X518078Y304812D01*
Y308811D01*
X520078Y310810D01*
X522077D01*
X524076Y308811D01*
Y306812D01*
Y308811D01*
X526076Y310810D01*
X528075D01*
X530075Y308811D01*
Y304812D01*
X528075Y302813D01*
D166*
X618036Y172596D02*
X624701D01*
X626034Y173929D01*
Y176595D01*
X624701Y177928D01*
X618036D01*
X626034Y180593D02*
Y183259D01*
Y181926D01*
X618036D01*
X619369Y180593D01*
D167*
X-7950Y481630D02*
X-2952D01*
Y479131D01*
X-3785Y478298D01*
X-5451D01*
X-6284Y479131D01*
Y481630D01*
X-3785Y473299D02*
X-2952Y474132D01*
Y475799D01*
X-3785Y476632D01*
X-7117D01*
X-7950Y475799D01*
Y474132D01*
X-7117Y473299D01*
X-2952Y471633D02*
X-7950D01*
Y469134D01*
X-7117Y468301D01*
X-6284D01*
X-5451Y469134D01*
Y471633D01*
Y469134D01*
X-4618Y468301D01*
X-3785D01*
X-2952Y469134D01*
Y471633D01*
Y458304D02*
Y461637D01*
X-7950D01*
Y458304D01*
X-5451Y461637D02*
Y459970D01*
X-7950Y456638D02*
X-2952D01*
X-7950Y453306D01*
X-2952D01*
Y451640D02*
X-7950D01*
Y449141D01*
X-7117Y448308D01*
X-3785D01*
X-2952Y449141D01*
Y451640D01*
D168*
X348164Y177650D02*
X347698Y177184D01*
Y176251D01*
X348164Y175784D01*
X350030D01*
X350497Y176251D01*
Y177184D01*
X350030Y177650D01*
X348164Y178583D02*
X347698Y179050D01*
Y179983D01*
X348164Y180449D01*
X348631D01*
X349097Y179983D01*
X349564Y180449D01*
X350030D01*
X350497Y179983D01*
Y179050D01*
X350030Y178583D01*
X349564D01*
X349097Y179050D01*
X348631Y178583D01*
X348164D01*
X349097Y179050D02*
Y179983D01*
X372348Y175486D02*
Y178285D01*
X370482D01*
X369549D02*
X368616D01*
X369082D01*
Y175486D01*
X369549Y175952D01*
X326628Y174978D02*
Y177777D01*
X324762D01*
X321963D02*
X323829D01*
X321963Y175911D01*
Y175444D01*
X322429Y174978D01*
X323362D01*
X323829Y175444D01*
M02*
