G04*
G04 #@! TF.GenerationSoftware,Altium Limited,Altium Designer,23.1.1 (15)*
G04*
G04 Layer_Color=2752767*
%FSLAX44Y44*%
%MOMM*%
G71*
G04*
G04 #@! TF.SameCoordinates,8BC828A1-C8E0-4588-AEB6-AA5E87443106*
G04*
G04*
G04 #@! TF.FilePolarity,Positive*
G04*
G01*
G75*
%ADD18C,0.1270*%
%ADD170C,0.1693*%
D18*
X539750Y698752D02*
Y696212D01*
X544830D01*
Y698752D01*
X547370D01*
Y703832D01*
X544830D01*
Y706372D01*
X539750D01*
Y703832D01*
X537210D01*
Y698752D01*
X539750D01*
X514350D02*
Y696212D01*
X519430D01*
Y698752D01*
X521970D01*
Y703832D01*
X519430D01*
Y706372D01*
X514350D01*
Y703832D01*
X511810D01*
Y698752D01*
X514350D01*
X488950D02*
Y696212D01*
X494030D01*
Y698752D01*
X496570D01*
Y703832D01*
X494030D01*
Y706372D01*
X488950D01*
Y703832D01*
X486410D01*
Y698752D01*
X488950D01*
X463550D02*
Y696212D01*
X468630D01*
Y698752D01*
X471170D01*
Y703832D01*
X468630D01*
Y706372D01*
X463550D01*
Y703832D01*
X461010D01*
Y698752D01*
X463550D01*
X688089Y735139D02*
X690629D01*
X693168Y737680D01*
X695708Y735139D01*
X698249D01*
Y737680D01*
X695708Y740219D01*
X698249Y742759D01*
Y745300D01*
X695708D01*
X693168Y742759D01*
X690629Y745300D01*
X688089D01*
Y742759D01*
X690629Y740219D01*
X688089Y737680D01*
Y735139D01*
X570101Y632607D02*
Y642767D01*
X580261D01*
Y632607D01*
X570101D01*
Y658007D02*
Y668167D01*
X580261D01*
Y658007D01*
X570101D01*
X400812Y739140D02*
X405892Y744220D01*
X410972Y739140D01*
X405892Y734060D01*
X400812Y739140D01*
X426212D02*
X431292Y744220D01*
X436372Y739140D01*
X431292Y734060D01*
X426212Y739140D01*
X337058Y523240D02*
Y533400D01*
X347218D01*
Y523240D01*
X337058D01*
Y497840D02*
Y508000D01*
X347218D01*
Y497840D01*
X337058D01*
X453390Y443230D02*
Y453390D01*
X463550D01*
Y443230D01*
X453390D01*
X478790D02*
Y453390D01*
X488950D01*
Y443230D01*
X478790D01*
X516521Y604534D02*
Y614693D01*
X526682D01*
Y604534D01*
X516521D01*
Y579133D02*
Y589294D01*
X526682D01*
Y579133D01*
X516521D01*
X264668Y509907D02*
Y520067D01*
X274828D01*
Y509907D01*
X264668D01*
X290068D02*
Y520067D01*
X300228D01*
Y509907D01*
X290068D01*
X572402Y204978D02*
Y215138D01*
X582561D01*
Y204978D01*
X572402D01*
Y255778D02*
Y265938D01*
X582561D01*
Y255778D01*
X572402D01*
Y230378D02*
Y240538D01*
X582561D01*
Y230378D01*
X572402D01*
X557276Y294132D02*
Y304292D01*
X567436D01*
Y294132D01*
X557276D01*
Y344932D02*
Y355092D01*
X567436D01*
Y344932D01*
X557276D01*
Y319532D02*
Y329692D01*
X567436D01*
Y319532D01*
X557276D01*
X13640Y425040D02*
X8560Y435200D01*
X18720D01*
X13640Y425040D01*
Y495040D02*
X8560Y505200D01*
X18720D01*
X13640Y495040D01*
X40640Y435040D02*
X43180Y437580D01*
X45720D01*
X43180Y440120D01*
X45720Y442660D01*
X43180D01*
X40640Y445200D01*
X38100Y442660D01*
X35560D01*
X38100Y440120D01*
X35560Y437580D01*
X38100D01*
X40640Y435040D01*
Y485040D02*
X43180Y487580D01*
X45720D01*
X43180Y490120D01*
X45720Y492660D01*
X43180D01*
X40640Y495200D01*
X38100Y492660D01*
X35560D01*
X38100Y490120D01*
X35560Y487580D01*
X38100D01*
X40640Y485040D01*
X415290Y391160D02*
Y401320D01*
X425450D01*
Y391160D01*
X415290D01*
X417322Y393192D02*
Y399288D01*
X423418D01*
Y393192D01*
X417322D01*
X99060Y213360D02*
Y223520D01*
X109220D01*
Y213360D01*
X99060D01*
X101092Y215392D02*
Y221488D01*
X107188D01*
Y215392D01*
X101092D01*
X551799Y179689D02*
Y189849D01*
X561959D01*
Y179689D01*
X551799D01*
X553831Y181721D02*
Y187817D01*
X559927D01*
Y181721D01*
X553831D01*
X440396Y519977D02*
Y530137D01*
X450556D01*
Y519977D01*
X440396D01*
X442429Y522010D02*
Y528106D01*
X448525D01*
Y522010D01*
X442429D01*
X459740Y642620D02*
Y652780D01*
X469900D01*
Y642620D01*
X459740D01*
X461772Y644652D02*
Y650748D01*
X467868D01*
Y644652D01*
X461772D01*
X389382Y495300D02*
Y505460D01*
X399542D01*
Y495300D01*
X389382D01*
X391414Y497332D02*
Y503428D01*
X397510D01*
Y497332D01*
X391414D01*
X528574Y341122D02*
Y351282D01*
X538734D01*
Y341122D01*
X528574D01*
X530606Y343154D02*
Y349250D01*
X536702D01*
Y343154D01*
X530606D01*
X460416Y408772D02*
Y418932D01*
X470576D01*
Y408772D01*
X460416D01*
X462448Y410804D02*
Y416900D01*
X468544D01*
Y410804D01*
X462448D01*
X538480Y153924D02*
Y164084D01*
X548640D01*
Y153924D01*
X538480D01*
X540512Y155956D02*
Y162052D01*
X546608D01*
Y155956D01*
X540512D01*
X551942Y45212D02*
Y55372D01*
X562102D01*
Y45212D01*
X551942D01*
X553974Y47244D02*
Y53340D01*
X560070D01*
Y47244D01*
X553974D01*
X312674Y58674D02*
Y68834D01*
X322834D01*
Y58674D01*
X312674D01*
X314706Y60706D02*
Y66802D01*
X320802D01*
Y60706D01*
X314706D01*
X413258Y82550D02*
Y92710D01*
X423418D01*
Y82550D01*
X413258D01*
X415290Y84582D02*
Y90678D01*
X421386D01*
Y84582D01*
X415290D01*
X424688Y659130D02*
Y669290D01*
X434848D01*
Y659130D01*
X424688D01*
X426720Y661162D02*
Y667258D01*
X432816D01*
Y661162D01*
X426720D01*
X379220Y333318D02*
Y343478D01*
X389380D01*
Y333318D01*
X379220D01*
X381252Y335350D02*
Y341446D01*
X387348D01*
Y335350D01*
X381252D01*
X182874Y213359D02*
Y223519D01*
X193034D01*
Y213359D01*
X182874D01*
X184906Y215391D02*
Y221487D01*
X191002D01*
Y215391D01*
X184906D01*
X172720Y213106D02*
Y223266D01*
X182880D01*
Y213106D01*
X172720D01*
X174752Y215138D02*
Y221234D01*
X180848D01*
Y215138D01*
X174752D01*
X162560Y213106D02*
Y223266D01*
X172720D01*
Y213106D01*
X162560D01*
X164592Y215138D02*
Y221234D01*
X170688D01*
Y215138D01*
X164592D01*
X149860Y213106D02*
Y223266D01*
X160020D01*
Y213106D01*
X149860D01*
X151892Y215138D02*
Y221234D01*
X157988D01*
Y215138D01*
X151892D01*
X137160Y213106D02*
Y223266D01*
X147320D01*
Y213106D01*
X137160D01*
X139192Y215138D02*
Y221234D01*
X145288D01*
Y215138D01*
X139192D01*
X124460Y213106D02*
Y223266D01*
X134620D01*
Y213106D01*
X124460D01*
X126492Y215138D02*
Y221234D01*
X132588D01*
Y215138D01*
X126492D01*
X187960Y200406D02*
Y210566D01*
X198120D01*
Y200406D01*
X187960D01*
X189992Y202438D02*
Y208534D01*
X196088D01*
Y202438D01*
X189992D01*
X111760Y213106D02*
Y223266D01*
X121920D01*
Y213106D01*
X111760D01*
X113792Y215138D02*
Y221234D01*
X119888D01*
Y215138D01*
X113792D01*
X99314Y203708D02*
Y213868D01*
X109474D01*
Y203708D01*
X99314D01*
X101346Y205740D02*
Y211836D01*
X107442D01*
Y205740D01*
X101346D01*
X473456Y177427D02*
Y187587D01*
X483616D01*
Y177427D01*
X473456D01*
X475488Y179459D02*
Y185555D01*
X481584D01*
Y179459D01*
X475488D01*
X473456Y193340D02*
Y203500D01*
X483616D01*
Y193340D01*
X473456D01*
X475488Y195372D02*
Y201468D01*
X481584D01*
Y195372D01*
X475488D01*
X516890Y216916D02*
Y227076D01*
X527050D01*
Y216916D01*
X516890D01*
X518922Y218948D02*
Y225044D01*
X525018D01*
Y218948D01*
X518922D01*
X508943Y238760D02*
Y248920D01*
X519103D01*
Y238760D01*
X508943D01*
X510975Y240792D02*
Y246888D01*
X517071D01*
Y240792D01*
X510975D01*
X501904Y202692D02*
Y212852D01*
X512064D01*
Y202692D01*
X501904D01*
X503936Y204724D02*
Y210820D01*
X510032D01*
Y204724D01*
X503936D01*
X483363Y217678D02*
Y227838D01*
X493523D01*
Y217678D01*
X483363D01*
X485395Y219710D02*
Y225806D01*
X491491D01*
Y219710D01*
X485395D01*
X506222Y217170D02*
Y227330D01*
X516382D01*
Y217170D01*
X506222D01*
X508254Y219202D02*
Y225298D01*
X514350D01*
Y219202D01*
X508254D01*
X630682Y343154D02*
Y353314D01*
X640842D01*
Y343154D01*
X630682D01*
X632714Y345186D02*
Y351282D01*
X638810D01*
Y345186D01*
X632714D01*
X646031Y348607D02*
Y358767D01*
X656191D01*
Y348607D01*
X646031D01*
X648063Y350639D02*
Y356735D01*
X654159D01*
Y350639D01*
X648063D01*
X607060Y263285D02*
Y273445D01*
X617220D01*
Y263285D01*
X607060D01*
X609092Y265317D02*
Y271413D01*
X615188D01*
Y265317D01*
X609092D01*
X606807Y250331D02*
Y260491D01*
X616967D01*
Y250331D01*
X606807D01*
X608839Y252363D02*
Y258459D01*
X614935D01*
Y252363D01*
X608839D01*
X398930Y577733D02*
X401470Y582812D01*
X398930Y587892D01*
X404010Y585353D01*
X409090Y587892D01*
X406550Y582812D01*
X409090Y577733D01*
X404010Y580272D01*
X398930Y577733D01*
X385930Y577733D02*
X388470Y582812D01*
X385930Y587892D01*
X391010Y585353D01*
X396090Y587892D01*
X393550Y582812D01*
X396090Y577733D01*
X391010Y580272D01*
X385930Y577733D01*
X392430Y571232D02*
X394970Y576312D01*
X392430Y581392D01*
X397510Y578852D01*
X402590Y581392D01*
X400050Y576312D01*
X402590Y571232D01*
X397510Y573772D01*
X392430Y571232D01*
Y584232D02*
X394970Y589313D01*
X392430Y594393D01*
X397510Y591852D01*
X402590Y594393D01*
X400050Y589313D01*
X402590Y584232D01*
X397510Y586772D01*
X392430Y584232D01*
X388620Y637540D02*
Y647700D01*
X398780D01*
Y637540D01*
X388620D01*
X390652Y639572D02*
Y645668D01*
X396748D01*
Y639572D01*
X390652D01*
X347578Y557530D02*
Y567690D01*
X357738D01*
Y557530D01*
X347578D01*
X349610Y559562D02*
Y565658D01*
X355706D01*
Y559562D01*
X349610D01*
X323850Y610870D02*
Y621030D01*
X334010D01*
Y610870D01*
X323850D01*
X325882Y612902D02*
Y618998D01*
X331978D01*
Y612902D01*
X325882D01*
X323088Y59182D02*
Y69342D01*
X333248D01*
Y59182D01*
X323088D01*
X325120Y61214D02*
Y67310D01*
X331216D01*
Y61214D01*
X325120D01*
X406146Y244562D02*
Y254722D01*
X416306D01*
Y244562D01*
X406146D01*
X408178Y246594D02*
Y252690D01*
X414274D01*
Y246594D01*
X408178D01*
X395732Y226822D02*
Y236982D01*
X405892D01*
Y226822D01*
X395732D01*
X397764Y228854D02*
Y234950D01*
X403860D01*
Y228854D01*
X397764D01*
X401320Y217932D02*
Y228092D01*
X411480D01*
Y217932D01*
X401320D01*
X403352Y219964D02*
Y226060D01*
X409448D01*
Y219964D01*
X403352D01*
X468376Y535432D02*
Y545592D01*
X478536D01*
Y535432D01*
X468376D01*
X470408Y537464D02*
Y543560D01*
X476504D01*
Y537464D01*
X470408D01*
X391414Y21844D02*
Y32004D01*
X401574D01*
Y21844D01*
X391414D01*
X393446Y23876D02*
Y29972D01*
X399542D01*
Y23876D01*
X393446D01*
X421640Y675640D02*
Y685800D01*
X431800D01*
Y675640D01*
X421640D01*
X423672Y677672D02*
Y683768D01*
X429768D01*
Y677672D01*
X423672D01*
X379222Y315468D02*
Y325628D01*
X389382D01*
Y315468D01*
X379222D01*
X381254Y317500D02*
Y323596D01*
X387350D01*
Y317500D01*
X381254D01*
X325120Y95504D02*
Y105664D01*
X335280D01*
Y95504D01*
X325120D01*
X327152Y97536D02*
Y103632D01*
X333248D01*
Y97536D01*
X327152D01*
X340614Y96266D02*
Y106426D01*
X350774D01*
Y96266D01*
X340614D01*
X342646Y98298D02*
Y104394D01*
X348742D01*
Y98298D01*
X342646D01*
X367697Y148082D02*
Y158242D01*
X377857D01*
Y148082D01*
X367697D01*
X369729Y150114D02*
Y156210D01*
X375825D01*
Y150114D01*
X369729D01*
X551434Y30988D02*
Y41148D01*
X561594D01*
Y30988D01*
X551434D01*
X553466Y33020D02*
Y39116D01*
X559562D01*
Y33020D01*
X553466D01*
X659130Y372110D02*
Y382270D01*
X669290D01*
Y372110D01*
X659130D01*
X661162Y374142D02*
Y380238D01*
X667258D01*
Y374142D01*
X661162D01*
X682117Y322463D02*
Y332623D01*
X692277D01*
Y322463D01*
X682117D01*
X684149Y324495D02*
Y330591D01*
X690245D01*
Y324495D01*
X684149D01*
X668274Y322580D02*
Y332740D01*
X678434D01*
Y322580D01*
X668274D01*
X670306Y324612D02*
Y330708D01*
X676402D01*
Y324612D01*
X670306D01*
X633596Y360019D02*
Y370179D01*
X643756D01*
Y360019D01*
X633596D01*
X635628Y362051D02*
Y368147D01*
X641724D01*
Y362051D01*
X635628D01*
X320421Y323596D02*
Y333756D01*
X330581D01*
Y323596D01*
X320421D01*
X322453Y325628D02*
Y331724D01*
X328549D01*
Y325628D01*
X322453D01*
X320294Y400304D02*
Y410464D01*
X330454D01*
Y400304D01*
X320294D01*
X322326Y402336D02*
Y408432D01*
X328422D01*
Y402336D01*
X322326D01*
X391414Y40645D02*
Y50805D01*
X401574D01*
Y40645D01*
X391414D01*
X393446Y42677D02*
Y48773D01*
X399542D01*
Y42677D01*
X393446D01*
X417576Y61468D02*
Y71628D01*
X427736D01*
Y61468D01*
X417576D01*
X419608Y63500D02*
Y69596D01*
X425704D01*
Y63500D01*
X419608D01*
X558673Y68072D02*
Y78232D01*
X568833D01*
Y68072D01*
X558673D01*
X560705Y70104D02*
Y76200D01*
X566801D01*
Y70104D01*
X560705D01*
X643255Y156845D02*
Y167005D01*
X653415D01*
Y156845D01*
X643255D01*
X645287Y158877D02*
Y164973D01*
X651383D01*
Y158877D01*
X645287D01*
X662432Y156464D02*
Y166624D01*
X672592D01*
Y156464D01*
X662432D01*
X664464Y158496D02*
Y164592D01*
X670560D01*
Y158496D01*
X664464D01*
X450343Y276860D02*
Y287020D01*
X460503D01*
Y276860D01*
X450343D01*
X452375Y278892D02*
Y284988D01*
X458471D01*
Y278892D01*
X452375D01*
X530595Y204713D02*
Y214873D01*
X540755D01*
Y204713D01*
X530595D01*
X532627Y206745D02*
Y212841D01*
X538723D01*
Y206745D01*
X532627D01*
X527558Y164338D02*
Y174498D01*
X537718D01*
Y164338D01*
X527558D01*
X529590Y166370D02*
Y172466D01*
X535686D01*
Y166370D01*
X529590D01*
X350520Y236474D02*
Y246634D01*
X360680D01*
Y236474D01*
X350520D01*
X352552Y238506D02*
Y244602D01*
X358648D01*
Y238506D01*
X352552D01*
X249174Y323088D02*
Y333248D01*
X259334D01*
Y323088D01*
X249174D01*
X251206Y325120D02*
Y331216D01*
X257302D01*
Y325120D01*
X251206D01*
X342011Y400178D02*
Y410338D01*
X352171D01*
Y400178D01*
X342011D01*
X344043Y402210D02*
Y408306D01*
X350139D01*
Y402210D01*
X344043D01*
X342646Y323850D02*
Y334010D01*
X352806D01*
Y323850D01*
X342646D01*
X344678Y325882D02*
Y331978D01*
X350774D01*
Y325882D01*
X344678D01*
X686054Y227584D02*
Y237744D01*
X696214D01*
Y227584D01*
X686054D01*
X688086Y229616D02*
Y235712D01*
X694182D01*
Y229616D01*
X688086D01*
X350520Y118110D02*
Y128270D01*
X360680D01*
Y118110D01*
X350520D01*
X352552Y120142D02*
Y126238D01*
X358648D01*
Y120142D01*
X352552D01*
X582930Y133350D02*
Y143510D01*
X593090D01*
Y133350D01*
X582930D01*
X584962Y135382D02*
Y141478D01*
X591058D01*
Y135382D01*
X584962D01*
X473202Y278130D02*
Y288290D01*
X483362D01*
Y278130D01*
X473202D01*
X475234Y280162D02*
Y286258D01*
X481330D01*
Y280162D01*
X475234D01*
X506222Y405130D02*
Y415290D01*
X516382D01*
Y405130D01*
X506222D01*
X508254Y407162D02*
Y413258D01*
X514350D01*
Y407162D01*
X508254D01*
X179832Y323596D02*
Y333756D01*
X189992D01*
Y323596D01*
X179832D01*
X181864Y325628D02*
Y331724D01*
X187960D01*
Y325628D01*
X181864D01*
X150114Y292862D02*
Y303022D01*
X160274D01*
Y292862D01*
X150114D01*
X152146Y294894D02*
Y300990D01*
X158242D01*
Y294894D01*
X152146D01*
X500380Y279400D02*
Y289560D01*
X510540D01*
Y279400D01*
X500380D01*
X502412Y281432D02*
Y287528D01*
X508508D01*
Y281432D01*
X502412D01*
X317500Y162560D02*
Y172720D01*
X327660D01*
Y162560D01*
X317500D01*
X319532Y164592D02*
Y170688D01*
X325628D01*
Y164592D01*
X319532D01*
X520700Y105410D02*
Y115570D01*
X530860D01*
Y105410D01*
X520700D01*
X522732Y107442D02*
Y113538D01*
X528828D01*
Y107442D01*
X522732D01*
X558800Y133350D02*
Y143510D01*
X568960D01*
Y133350D01*
X558800D01*
X560832Y135382D02*
Y141478D01*
X566928D01*
Y135382D01*
X560832D01*
X466129Y360641D02*
Y370801D01*
X476289D01*
Y360641D01*
X466129D01*
X468161Y362673D02*
Y368769D01*
X474257D01*
Y362673D01*
X468161D01*
X495300Y360680D02*
Y370840D01*
X505460D01*
Y360680D01*
X495300D01*
X497332Y362712D02*
Y368808D01*
X503428D01*
Y362712D01*
X497332D01*
X509270Y373380D02*
Y383540D01*
X519430D01*
Y373380D01*
X509270D01*
X511302Y375412D02*
Y381508D01*
X517398D01*
Y375412D01*
X511302D01*
X375920Y637540D02*
Y647700D01*
X386080D01*
Y637540D01*
X375920D01*
X377952Y639572D02*
Y645668D01*
X384048D01*
Y639572D01*
X377952D01*
X75184Y473456D02*
Y483616D01*
X85344D01*
Y473456D01*
X75184D01*
X77216Y475488D02*
Y481584D01*
X83312D01*
Y475488D01*
X77216D01*
X112316Y177995D02*
Y188155D01*
X122476D01*
Y177995D01*
X112316D01*
X114348Y180027D02*
Y186123D01*
X120444D01*
Y180027D01*
X114348D01*
X99616Y180535D02*
Y190695D01*
X109776D01*
Y180535D01*
X99616D01*
X101648Y182567D02*
Y188663D01*
X107744D01*
Y182567D01*
X101648D01*
X256540Y459740D02*
Y469900D01*
X266700D01*
Y459740D01*
X256540D01*
X258572Y461772D02*
Y467868D01*
X264668D01*
Y461772D01*
X258572D01*
X624840Y182880D02*
Y193040D01*
X635000D01*
Y182880D01*
X624840D01*
X626872Y184912D02*
Y191008D01*
X632968D01*
Y184912D01*
X626872D01*
X623570Y210820D02*
Y220980D01*
X633730D01*
Y210820D01*
X623570D01*
X625602Y212852D02*
Y218948D01*
X631698D01*
Y212852D01*
X625602D01*
X611124Y173790D02*
X613664Y178870D01*
X611124Y183950D01*
X616204Y181410D01*
X621284Y183950D01*
X618744Y178870D01*
X621284Y173790D01*
X616204Y176330D01*
X611124Y173790D01*
X613410Y220980D02*
Y231140D01*
X623570D01*
Y220980D01*
X613410D01*
X615442Y223012D02*
Y229108D01*
X621538D01*
Y223012D01*
X615442D01*
X414020Y336550D02*
Y346710D01*
X424180D01*
Y336550D01*
X414020D01*
X416052Y338582D02*
Y344678D01*
X422148D01*
Y338582D01*
X416052D01*
X541020Y121920D02*
Y132080D01*
X551180D01*
Y121920D01*
X541020D01*
X543052Y123952D02*
Y130048D01*
X549148D01*
Y123952D01*
X543052D01*
X125730Y14224D02*
Y24384D01*
X135890D01*
Y14224D01*
X125730D01*
X127762Y16256D02*
Y22352D01*
X133858D01*
Y16256D01*
X127762D01*
X151130Y14224D02*
Y24384D01*
X161290D01*
Y14224D01*
X151130D01*
X153162Y16256D02*
Y22352D01*
X159258D01*
Y16256D01*
X153162D01*
X163068Y14224D02*
Y24384D01*
X173228D01*
Y14224D01*
X163068D01*
X165100Y16256D02*
Y22352D01*
X171196D01*
Y16256D01*
X165100D01*
X138430Y14224D02*
Y24384D01*
X148590D01*
Y14224D01*
X138430D01*
X140462Y16256D02*
Y22352D01*
X146558D01*
Y16256D01*
X140462D01*
X99060Y14224D02*
Y24384D01*
X109220D01*
Y14224D01*
X99060D01*
X101092Y16256D02*
Y22352D01*
X107188D01*
Y16256D01*
X101092D01*
X113030Y14224D02*
Y24384D01*
X123190D01*
Y14224D01*
X113030D01*
X115062Y16256D02*
Y22352D01*
X121158D01*
Y16256D01*
X115062D01*
X368300Y92710D02*
Y102870D01*
X378460D01*
Y92710D01*
X368300D01*
X370332Y94742D02*
Y100838D01*
X376428D01*
Y94742D01*
X370332D01*
X241300Y148082D02*
Y158242D01*
X251460D01*
Y148082D01*
X241300D01*
X243332Y150114D02*
Y156210D01*
X249428D01*
Y150114D01*
X243332D01*
X228600Y148082D02*
Y158242D01*
X238760D01*
Y148082D01*
X228600D01*
X230632Y150114D02*
Y156210D01*
X236728D01*
Y150114D01*
X230632D01*
X254000Y148082D02*
Y158242D01*
X264160D01*
Y148082D01*
X254000D01*
X256032Y150114D02*
Y156210D01*
X262128D01*
Y150114D01*
X256032D01*
X266700Y148082D02*
Y158242D01*
X276860D01*
Y148082D01*
X266700D01*
X268732Y150114D02*
Y156210D01*
X274828D01*
Y150114D01*
X268732D01*
X215900Y148082D02*
Y158242D01*
X226060D01*
Y148082D01*
X215900D01*
X217932Y150114D02*
Y156210D01*
X224028D01*
Y150114D01*
X217932D01*
X203200Y148082D02*
Y158242D01*
X213360D01*
Y148082D01*
X203200D01*
X205232Y150114D02*
Y156210D01*
X211328D01*
Y150114D01*
X205232D01*
X177800Y148082D02*
Y158242D01*
X187960D01*
Y148082D01*
X177800D01*
X179832Y150114D02*
Y156210D01*
X185928D01*
Y150114D01*
X179832D01*
X190500Y148082D02*
Y158242D01*
X200660D01*
Y148082D01*
X190500D01*
X192532Y150114D02*
Y156210D01*
X198628D01*
Y150114D01*
X192532D01*
X279400Y148082D02*
Y158242D01*
X289560D01*
Y148082D01*
X279400D01*
X281432Y150114D02*
Y156210D01*
X287528D01*
Y150114D01*
X281432D01*
X292100Y148082D02*
Y158242D01*
X302260D01*
Y148082D01*
X292100D01*
X294132Y150114D02*
Y156210D01*
X300228D01*
Y150114D01*
X294132D01*
X304800Y148082D02*
Y158242D01*
X314960D01*
Y148082D01*
X304800D01*
X306832Y150114D02*
Y156210D01*
X312928D01*
Y150114D01*
X306832D01*
X317500Y148082D02*
Y158242D01*
X327660D01*
Y148082D01*
X317500D01*
X319532Y150114D02*
Y156210D01*
X325628D01*
Y150114D01*
X319532D01*
X330200Y148082D02*
Y158242D01*
X340360D01*
Y148082D01*
X330200D01*
X332232Y150114D02*
Y156210D01*
X338328D01*
Y150114D01*
X332232D01*
X342900Y148082D02*
Y158242D01*
X353060D01*
Y148082D01*
X342900D01*
X344932Y150114D02*
Y156210D01*
X351028D01*
Y150114D01*
X344932D01*
X355600Y148082D02*
Y158242D01*
X365760D01*
Y148082D01*
X355600D01*
X357632Y150114D02*
Y156210D01*
X363728D01*
Y150114D01*
X357632D01*
X368158Y162476D02*
Y172636D01*
X378318D01*
Y162476D01*
X368158D01*
X370190Y164508D02*
Y170604D01*
X376286D01*
Y164508D01*
X370190D01*
X349250Y134620D02*
Y144780D01*
X359410D01*
Y134620D01*
X349250D01*
X351282Y136652D02*
Y142748D01*
X357378D01*
Y136652D01*
X351282D01*
X436732Y152216D02*
X439272Y157296D01*
X436732Y162376D01*
X441813Y159836D01*
X446893Y162376D01*
X444352Y157296D01*
X446893Y152216D01*
X441813Y154756D01*
X436732Y152216D01*
X422366Y152216D02*
X424907Y157296D01*
X422366Y162376D01*
X427447Y159836D01*
X432527Y162376D01*
X429986Y157296D01*
X432527Y152216D01*
X427447Y154756D01*
X422366Y152216D01*
Y166216D02*
X424907Y171296D01*
X422366Y176376D01*
X427447Y173836D01*
X432527Y176376D01*
X429986Y171296D01*
X432527Y166216D01*
X427447Y168756D01*
X422366Y166216D01*
X436732Y166216D02*
X439272Y171296D01*
X436732Y176376D01*
X441813Y173836D01*
X446893Y176376D01*
X444352Y171296D01*
X446893Y166216D01*
X441813Y168756D01*
X436732Y166216D01*
Y180216D02*
X439272Y185296D01*
X436732Y190376D01*
X441813Y187836D01*
X446893Y190376D01*
X444352Y185296D01*
X446893Y180216D01*
X441813Y182756D01*
X436732Y180216D01*
X408904D02*
X411445Y185296D01*
X408904Y190376D01*
X413984Y187836D01*
X419064Y190376D01*
X416525Y185296D01*
X419064Y180216D01*
X413984Y182756D01*
X408904Y180216D01*
Y166216D02*
X411445Y171296D01*
X408904Y176376D01*
X413984Y173836D01*
X419064Y176376D01*
X416525Y171296D01*
X419064Y166216D01*
X413984Y168756D01*
X408904Y166216D01*
Y138216D02*
X411445Y143296D01*
X408904Y148376D01*
X413984Y145836D01*
X419064Y148376D01*
X416525Y143296D01*
X419064Y138216D01*
X413984Y140756D01*
X408904Y138216D01*
X422366D02*
X424907Y143296D01*
X422366Y148376D01*
X427447Y145836D01*
X432527Y148376D01*
X429986Y143296D01*
X432527Y138216D01*
X427447Y140756D01*
X422366Y138216D01*
X436732D02*
X439272Y143296D01*
X436732Y148376D01*
X441813Y145836D01*
X446893Y148376D01*
X444352Y143296D01*
X446893Y138216D01*
X441813Y140756D01*
X436732Y138216D01*
X450482Y166213D02*
X453022Y171293D01*
X450482Y176373D01*
X455563Y173833D01*
X460643Y176373D01*
X458102Y171293D01*
X460643Y166213D01*
X455563Y168753D01*
X450482Y166213D01*
Y152216D02*
X453022Y157296D01*
X450482Y162376D01*
X455563Y159836D01*
X460643Y162376D01*
X458102Y157296D01*
X460643Y152216D01*
X455563Y154756D01*
X450482Y152216D01*
Y138216D02*
X453022Y143296D01*
X450482Y148376D01*
X455563Y145836D01*
X460643Y148376D01*
X458102Y143296D01*
X460643Y138216D01*
X455563Y140756D01*
X450482Y138216D01*
X422366Y180216D02*
X424907Y185296D01*
X422366Y190376D01*
X427447Y187836D01*
X432527Y190376D01*
X429986Y185296D01*
X432527Y180216D01*
X427447Y182756D01*
X422366Y180216D01*
X450482D02*
X453022Y185296D01*
X450482Y190376D01*
X455563Y187836D01*
X460643Y190376D01*
X458102Y185296D01*
X460643Y180216D01*
X455563Y182756D01*
X450482Y180216D01*
X408904Y151846D02*
X411445Y156926D01*
X408904Y162006D01*
X413984Y159466D01*
X419064Y162006D01*
X416525Y156926D01*
X419064Y151846D01*
X413984Y154386D01*
X408904Y151846D01*
X367078Y178503D02*
Y188663D01*
X377238D01*
Y178503D01*
X367078D01*
X369110Y180535D02*
Y186631D01*
X375206D01*
Y180535D01*
X369110D01*
X367426Y197616D02*
Y207776D01*
X377586D01*
Y197616D01*
X367426D01*
X369458Y199648D02*
Y205744D01*
X375554D01*
Y199648D01*
X369458D01*
X113030Y162306D02*
Y172466D01*
X123190D01*
Y162306D01*
X113030D01*
X115062Y164338D02*
Y170434D01*
X121158D01*
Y164338D01*
X115062D01*
X100330Y162306D02*
Y172466D01*
X110490D01*
Y162306D01*
X100330D01*
X102362Y164338D02*
Y170434D01*
X108458D01*
Y164338D01*
X102362D01*
X99060Y49530D02*
Y59690D01*
X109220D01*
Y49530D01*
X99060D01*
X101092Y51562D02*
Y57658D01*
X107188D01*
Y51562D01*
X101092D01*
X113030Y25146D02*
Y35306D01*
X123190D01*
Y25146D01*
X113030D01*
X115062Y27178D02*
Y33274D01*
X121158D01*
Y27178D01*
X115062D01*
X113030Y2286D02*
Y12446D01*
X123190D01*
Y2286D01*
X113030D01*
X115062Y4318D02*
Y10414D01*
X121158D01*
Y4318D01*
X115062D01*
X99060Y25146D02*
Y35306D01*
X109220D01*
Y25146D01*
X99060D01*
X101092Y27178D02*
Y33274D01*
X107188D01*
Y27178D01*
X101092D01*
X113030Y36830D02*
Y46990D01*
X123190D01*
Y36830D01*
X113030D01*
X115062Y38862D02*
Y44958D01*
X121158D01*
Y38862D01*
X115062D01*
X99060Y36830D02*
Y46990D01*
X109220D01*
Y36830D01*
X99060D01*
X101092Y38862D02*
Y44958D01*
X107188D01*
Y38862D01*
X101092D01*
X99314Y2540D02*
Y12700D01*
X109474D01*
Y2540D01*
X99314D01*
X101346Y4572D02*
Y10668D01*
X107442D01*
Y4572D01*
X101346D01*
X99060Y113030D02*
Y123190D01*
X109220D01*
Y113030D01*
X99060D01*
X101092Y115062D02*
Y121158D01*
X107188D01*
Y115062D01*
X101092D01*
X99060Y125730D02*
Y135890D01*
X109220D01*
Y125730D01*
X99060D01*
X101092Y127762D02*
Y133858D01*
X107188D01*
Y127762D01*
X101092D01*
X99060Y149352D02*
Y159512D01*
X109220D01*
Y149352D01*
X99060D01*
X101092Y151384D02*
Y157480D01*
X107188D01*
Y151384D01*
X101092D01*
X99060Y138430D02*
Y148590D01*
X109220D01*
Y138430D01*
X99060D01*
X101092Y140462D02*
Y146558D01*
X107188D01*
Y140462D01*
X101092D01*
X99060Y62230D02*
Y72390D01*
X109220D01*
Y62230D01*
X99060D01*
X101092Y64262D02*
Y70358D01*
X107188D01*
Y64262D01*
X101092D01*
X99060Y100330D02*
Y110490D01*
X109220D01*
Y100330D01*
X99060D01*
X101092Y102362D02*
Y108458D01*
X107188D01*
Y102362D01*
X101092D01*
X99060Y87630D02*
Y97790D01*
X109220D01*
Y87630D01*
X99060D01*
X101092Y89662D02*
Y95758D01*
X107188D01*
Y89662D01*
X101092D01*
X99060Y74930D02*
Y85090D01*
X109220D01*
Y74930D01*
X99060D01*
X101092Y76962D02*
Y83058D01*
X107188D01*
Y76962D01*
X101092D01*
X113030Y113030D02*
Y123190D01*
X123190D01*
Y113030D01*
X113030D01*
X115062Y115062D02*
Y121158D01*
X121158D01*
Y115062D01*
X115062D01*
X113030Y62230D02*
Y72390D01*
X123190D01*
Y62230D01*
X113030D01*
X115062Y64262D02*
Y70358D01*
X121158D01*
Y64262D01*
X115062D01*
X113030Y149352D02*
Y159512D01*
X123190D01*
Y149352D01*
X113030D01*
X115062Y151384D02*
Y157480D01*
X121158D01*
Y151384D01*
X115062D01*
X113030Y138430D02*
Y148590D01*
X123190D01*
Y138430D01*
X113030D01*
X115062Y140462D02*
Y146558D01*
X121158D01*
Y140462D01*
X115062D01*
X113030Y125730D02*
Y135890D01*
X123190D01*
Y125730D01*
X113030D01*
X115062Y127762D02*
Y133858D01*
X121158D01*
Y127762D01*
X115062D01*
X113030Y100330D02*
Y110490D01*
X123190D01*
Y100330D01*
X113030D01*
X115062Y102362D02*
Y108458D01*
X121158D01*
Y102362D01*
X115062D01*
X113030Y87630D02*
Y97790D01*
X123190D01*
Y87630D01*
X113030D01*
X115062Y89662D02*
Y95758D01*
X121158D01*
Y89662D01*
X115062D01*
X113030Y74930D02*
Y85090D01*
X123190D01*
Y74930D01*
X113030D01*
X115062Y76962D02*
Y83058D01*
X121158D01*
Y76962D01*
X115062D01*
X113030Y49530D02*
Y59690D01*
X123190D01*
Y49530D01*
X113030D01*
X115062Y51562D02*
Y57658D01*
X121158D01*
Y51562D01*
X115062D01*
X125730Y149352D02*
Y159512D01*
X135890D01*
Y149352D01*
X125730D01*
X127762Y151384D02*
Y157480D01*
X133858D01*
Y151384D01*
X127762D01*
X125730Y162306D02*
Y172466D01*
X135890D01*
Y162306D01*
X125730D01*
X127762Y164338D02*
Y170434D01*
X133858D01*
Y164338D01*
X127762D01*
X125730Y113030D02*
Y123190D01*
X135890D01*
Y113030D01*
X125730D01*
X127762Y115062D02*
Y121158D01*
X133858D01*
Y115062D01*
X127762D01*
X125730Y74930D02*
Y85090D01*
X135890D01*
Y74930D01*
X125730D01*
X127762Y76962D02*
Y83058D01*
X133858D01*
Y76962D01*
X127762D01*
X125730Y87630D02*
Y97790D01*
X135890D01*
Y87630D01*
X125730D01*
X127762Y89662D02*
Y95758D01*
X133858D01*
Y89662D01*
X127762D01*
X125730Y138430D02*
Y148590D01*
X135890D01*
Y138430D01*
X125730D01*
X127762Y140462D02*
Y146558D01*
X133858D01*
Y140462D01*
X127762D01*
X125730Y125730D02*
Y135890D01*
X135890D01*
Y125730D01*
X125730D01*
X127762Y127762D02*
Y133858D01*
X133858D01*
Y127762D01*
X127762D01*
X125730Y100330D02*
Y110490D01*
X135890D01*
Y100330D01*
X125730D01*
X127762Y102362D02*
Y108458D01*
X133858D01*
Y102362D01*
X127762D01*
X125730Y62230D02*
Y72390D01*
X135890D01*
Y62230D01*
X125730D01*
X127762Y64262D02*
Y70358D01*
X133858D01*
Y64262D01*
X127762D01*
X125730Y49530D02*
Y59690D01*
X135890D01*
Y49530D01*
X125730D01*
X127762Y51562D02*
Y57658D01*
X133858D01*
Y51562D01*
X127762D01*
X163830Y87630D02*
Y97790D01*
X173990D01*
Y87630D01*
X163830D01*
X165862Y89662D02*
Y95758D01*
X171958D01*
Y89662D01*
X165862D01*
X138430Y74930D02*
Y85090D01*
X148590D01*
Y74930D01*
X138430D01*
X140462Y76962D02*
Y83058D01*
X146558D01*
Y76962D01*
X140462D01*
X151130Y49530D02*
Y59690D01*
X161290D01*
Y49530D01*
X151130D01*
X153162Y51562D02*
Y57658D01*
X159258D01*
Y51562D01*
X153162D01*
X138430Y62230D02*
Y72390D01*
X148590D01*
Y62230D01*
X138430D01*
X140462Y64262D02*
Y70358D01*
X146558D01*
Y64262D01*
X140462D01*
X151130Y62230D02*
Y72390D01*
X161290D01*
Y62230D01*
X151130D01*
X153162Y64262D02*
Y70358D01*
X159258D01*
Y64262D01*
X153162D01*
X151130Y74930D02*
Y85090D01*
X161290D01*
Y74930D01*
X151130D01*
X153162Y76962D02*
Y83058D01*
X159258D01*
Y76962D01*
X153162D01*
X163830Y62230D02*
Y72390D01*
X173990D01*
Y62230D01*
X163830D01*
X165862Y64262D02*
Y70358D01*
X171958D01*
Y64262D01*
X165862D01*
X163830Y49530D02*
Y59690D01*
X173990D01*
Y49530D01*
X163830D01*
X165862Y51562D02*
Y57658D01*
X171958D01*
Y51562D01*
X165862D01*
X138430Y87630D02*
Y97790D01*
X148590D01*
Y87630D01*
X138430D01*
X140462Y89662D02*
Y95758D01*
X146558D01*
Y89662D01*
X140462D01*
X151130Y87630D02*
Y97790D01*
X161290D01*
Y87630D01*
X151130D01*
X153162Y89662D02*
Y95758D01*
X159258D01*
Y89662D01*
X153162D01*
X138430Y100330D02*
Y110490D01*
X148590D01*
Y100330D01*
X138430D01*
X140462Y102362D02*
Y108458D01*
X146558D01*
Y102362D01*
X140462D01*
X164084Y100330D02*
Y110490D01*
X174244D01*
Y100330D01*
X164084D01*
X166116Y102362D02*
Y108458D01*
X172212D01*
Y102362D01*
X166116D01*
X151130Y100330D02*
Y110490D01*
X161290D01*
Y100330D01*
X151130D01*
X153162Y102362D02*
Y108458D01*
X159258D01*
Y102362D01*
X153162D01*
X163830Y74930D02*
Y85090D01*
X173990D01*
Y74930D01*
X163830D01*
X165862Y76962D02*
Y83058D01*
X171958D01*
Y76962D01*
X165862D01*
X138430Y49530D02*
Y59690D01*
X148590D01*
Y49530D01*
X138430D01*
X140462Y51562D02*
Y57658D01*
X146558D01*
Y51562D01*
X140462D01*
X151130Y138430D02*
Y148590D01*
X161290D01*
Y138430D01*
X151130D01*
X153162Y140462D02*
Y146558D01*
X159258D01*
Y140462D01*
X153162D01*
X151130Y125730D02*
Y135890D01*
X161290D01*
Y125730D01*
X151130D01*
X153162Y127762D02*
Y133858D01*
X159258D01*
Y127762D01*
X153162D01*
X151130Y113030D02*
Y123190D01*
X161290D01*
Y113030D01*
X151130D01*
X153162Y115062D02*
Y121158D01*
X159258D01*
Y115062D01*
X153162D01*
X138430Y113030D02*
Y123190D01*
X148590D01*
Y113030D01*
X138430D01*
X140462Y115062D02*
Y121158D01*
X146558D01*
Y115062D01*
X140462D01*
X138430Y125730D02*
Y135890D01*
X148590D01*
Y125730D01*
X138430D01*
X140462Y127762D02*
Y133858D01*
X146558D01*
Y127762D01*
X140462D01*
X138430Y138430D02*
Y148590D01*
X148590D01*
Y138430D01*
X138430D01*
X140462Y140462D02*
Y146558D01*
X146558D01*
Y140462D01*
X140462D01*
X138430Y149352D02*
Y159512D01*
X148590D01*
Y149352D01*
X138430D01*
X140462Y151384D02*
Y157480D01*
X146558D01*
Y151384D01*
X140462D01*
X151130Y149352D02*
Y159512D01*
X161290D01*
Y149352D01*
X151130D01*
X153162Y151384D02*
Y157480D01*
X159258D01*
Y151384D01*
X153162D01*
X164338Y138430D02*
Y148590D01*
X174498D01*
Y138430D01*
X164338D01*
X166370Y140462D02*
Y146558D01*
X172466D01*
Y140462D01*
X166370D01*
X164338Y125730D02*
Y135890D01*
X174498D01*
Y125730D01*
X164338D01*
X166370Y127762D02*
Y133858D01*
X172466D01*
Y127762D01*
X166370D01*
X163830Y162306D02*
Y172466D01*
X173990D01*
Y162306D01*
X163830D01*
X165862Y164338D02*
Y170434D01*
X171958D01*
Y164338D01*
X165862D01*
X164084Y113030D02*
Y123190D01*
X174244D01*
Y113030D01*
X164084D01*
X166116Y115062D02*
Y121158D01*
X172212D01*
Y115062D01*
X166116D01*
X138430Y162306D02*
Y172466D01*
X148590D01*
Y162306D01*
X138430D01*
X140462Y164338D02*
Y170434D01*
X146558D01*
Y164338D01*
X140462D01*
X151130Y162306D02*
Y172466D01*
X161290D01*
Y162306D01*
X151130D01*
X153162Y164338D02*
Y170434D01*
X159258D01*
Y164338D01*
X153162D01*
X163830Y149352D02*
Y159512D01*
X173990D01*
Y149352D01*
X163830D01*
X165862Y151384D02*
Y157480D01*
X171958D01*
Y151384D01*
X165862D01*
X163322Y25146D02*
Y35306D01*
X173482D01*
Y25146D01*
X163322D01*
X165354Y27178D02*
Y33274D01*
X171450D01*
Y27178D01*
X165354D01*
X138430Y2540D02*
Y12700D01*
X148590D01*
Y2540D01*
X138430D01*
X140462Y4572D02*
Y10668D01*
X146558D01*
Y4572D01*
X140462D01*
X163322Y36830D02*
Y46990D01*
X173482D01*
Y36830D01*
X163322D01*
X165354Y38862D02*
Y44958D01*
X171450D01*
Y38862D01*
X165354D01*
X163068Y2540D02*
Y12700D01*
X173228D01*
Y2540D01*
X163068D01*
X165100Y4572D02*
Y10668D01*
X171196D01*
Y4572D01*
X165100D01*
X138430Y36830D02*
Y46990D01*
X148590D01*
Y36830D01*
X138430D01*
X140462Y38862D02*
Y44958D01*
X146558D01*
Y38862D01*
X140462D01*
X151130Y2540D02*
Y12700D01*
X161290D01*
Y2540D01*
X151130D01*
X153162Y4572D02*
Y10668D01*
X159258D01*
Y4572D01*
X153162D01*
X151130Y25146D02*
Y35306D01*
X161290D01*
Y25146D01*
X151130D01*
X153162Y27178D02*
Y33274D01*
X159258D01*
Y27178D01*
X153162D01*
X138430Y25146D02*
Y35306D01*
X148590D01*
Y25146D01*
X138430D01*
X140462Y27178D02*
Y33274D01*
X146558D01*
Y27178D01*
X140462D01*
X151130Y36830D02*
Y46990D01*
X161290D01*
Y36830D01*
X151130D01*
X153162Y38862D02*
Y44958D01*
X159258D01*
Y38862D01*
X153162D01*
X125730Y25146D02*
Y35306D01*
X135890D01*
Y25146D01*
X125730D01*
X127762Y27178D02*
Y33274D01*
X133858D01*
Y27178D01*
X127762D01*
X125730Y36830D02*
Y46990D01*
X135890D01*
Y36830D01*
X125730D01*
X127762Y38862D02*
Y44958D01*
X133858D01*
Y38862D01*
X127762D01*
X125730Y2540D02*
Y12700D01*
X135890D01*
Y2540D01*
X125730D01*
X127762Y4572D02*
Y10668D01*
X133858D01*
Y4572D01*
X127762D01*
X676686Y267476D02*
Y264936D01*
X681767D01*
Y267476D01*
X684306D01*
Y272556D01*
X681767D01*
Y275096D01*
X676686D01*
Y272556D01*
X674146D01*
Y267476D01*
X676686D01*
X381556Y173169D02*
Y183329D01*
X391716D01*
Y173169D01*
X381556D01*
X383588Y175201D02*
Y181297D01*
X389684D01*
Y175201D01*
X383588D01*
X353616Y179265D02*
Y189425D01*
X363776D01*
Y179265D01*
X353616D01*
X355648Y181297D02*
Y187393D01*
X361744D01*
Y181297D01*
X355648D01*
X355600Y162306D02*
Y172466D01*
X365760D01*
Y162306D01*
X355600D01*
X357632Y164338D02*
Y170434D01*
X363728D01*
Y164338D01*
X357632D01*
X41910Y561340D02*
Y571500D01*
X52070D01*
Y561340D01*
X41910D01*
X43942Y563372D02*
Y569468D01*
X50038D01*
Y563372D01*
X43942D01*
X39370Y665480D02*
Y675640D01*
X49530D01*
Y665480D01*
X39370D01*
X41402Y667512D02*
Y673608D01*
X47498D01*
Y667512D01*
X41402D01*
X43180Y765810D02*
Y775970D01*
X53340D01*
Y765810D01*
X43180D01*
X45212Y767842D02*
Y773938D01*
X51308D01*
Y767842D01*
X45212D01*
X267970Y322580D02*
Y332740D01*
X278130D01*
Y322580D01*
X267970D01*
X270002Y324612D02*
Y330708D01*
X276098D01*
Y324612D01*
X270002D01*
X329486Y177995D02*
Y188155D01*
X339646D01*
Y177995D01*
X329486D01*
X331518Y180027D02*
Y186123D01*
X337614D01*
Y180027D01*
X331518D01*
X491490Y320040D02*
Y330200D01*
X501650D01*
Y320040D01*
X491490D01*
X493522Y322072D02*
Y328168D01*
X499618D01*
Y322072D01*
X493522D01*
X177800Y162306D02*
Y172466D01*
X187960D01*
Y162306D01*
X177800D01*
X179832Y164338D02*
Y170434D01*
X185928D01*
Y164338D01*
X179832D01*
X279400Y162306D02*
Y172466D01*
X289560D01*
Y162306D01*
X279400D01*
X281432Y164338D02*
Y170434D01*
X287528D01*
Y164338D01*
X281432D01*
X292100Y162306D02*
Y172466D01*
X302260D01*
Y162306D01*
X292100D01*
X294132Y164338D02*
Y170434D01*
X300228D01*
Y164338D01*
X294132D01*
X304800Y162306D02*
Y172466D01*
X314960D01*
Y162306D01*
X304800D01*
X306832Y164338D02*
Y170434D01*
X312928D01*
Y164338D01*
X306832D01*
X266700Y162306D02*
Y172466D01*
X276860D01*
Y162306D01*
X266700D01*
X268732Y164338D02*
Y170434D01*
X274828D01*
Y164338D01*
X268732D01*
X228600Y162306D02*
Y172466D01*
X238760D01*
Y162306D01*
X228600D01*
X230632Y164338D02*
Y170434D01*
X236728D01*
Y164338D01*
X230632D01*
X241300Y162306D02*
Y172466D01*
X251460D01*
Y162306D01*
X241300D01*
X243332Y164338D02*
Y170434D01*
X249428D01*
Y164338D01*
X243332D01*
X254000Y162306D02*
Y172466D01*
X264160D01*
Y162306D01*
X254000D01*
X256032Y164338D02*
Y170434D01*
X262128D01*
Y164338D01*
X256032D01*
X215900Y162306D02*
Y172466D01*
X226060D01*
Y162306D01*
X215900D01*
X217932Y164338D02*
Y170434D01*
X224028D01*
Y164338D01*
X217932D01*
X190500Y162306D02*
Y172466D01*
X200660D01*
Y162306D01*
X190500D01*
X192532Y164338D02*
Y170434D01*
X198628D01*
Y164338D01*
X192532D01*
X203200Y162306D02*
Y172466D01*
X213360D01*
Y162306D01*
X203200D01*
X205232Y164338D02*
Y170434D01*
X211328D01*
Y164338D01*
X205232D01*
X342900Y162052D02*
Y172212D01*
X353060D01*
Y162052D01*
X342900D01*
X344932Y164084D02*
Y170180D01*
X351028D01*
Y164084D01*
X344932D01*
X330200Y162052D02*
Y172212D01*
X340360D01*
Y162052D01*
X330200D01*
X332232Y164084D02*
Y170180D01*
X338328D01*
Y164084D01*
X332232D01*
X104648Y226568D02*
Y236728D01*
X114808D01*
Y226568D01*
X104648D01*
X106680Y228600D02*
Y234696D01*
X112776D01*
Y228600D01*
X106680D01*
X117348Y226568D02*
Y236728D01*
X127508D01*
Y226568D01*
X117348D01*
X119380Y228600D02*
Y234696D01*
X125476D01*
Y228600D01*
X119380D01*
X130096Y226255D02*
Y236415D01*
X140256D01*
Y226255D01*
X130096D01*
X132128Y228287D02*
Y234383D01*
X138224D01*
Y228287D01*
X132128D01*
X142796Y226255D02*
Y236415D01*
X152956D01*
Y226255D01*
X142796D01*
X144828Y228287D02*
Y234383D01*
X150924D01*
Y228287D01*
X144828D01*
X155496Y226255D02*
Y236415D01*
X165656D01*
Y226255D01*
X155496D01*
X157528Y228287D02*
Y234383D01*
X163624D01*
Y228287D01*
X157528D01*
X168196Y226255D02*
Y236415D01*
X178356D01*
Y226255D01*
X168196D01*
X170228Y228287D02*
Y234383D01*
X176324D01*
Y228287D01*
X170228D01*
X15748Y239776D02*
Y249936D01*
X25908D01*
Y239776D01*
X15748D01*
X17780Y241808D02*
Y247904D01*
X23876D01*
Y241808D01*
X17780D01*
X28448Y239776D02*
Y249936D01*
X38608D01*
Y239776D01*
X28448D01*
X30480Y241808D02*
Y247904D01*
X36576D01*
Y241808D01*
X30480D01*
X41148Y239776D02*
Y249936D01*
X51308D01*
Y239776D01*
X41148D01*
X43180Y241808D02*
Y247904D01*
X49276D01*
Y241808D01*
X43180D01*
X53848Y239776D02*
Y249936D01*
X64008D01*
Y239776D01*
X53848D01*
X55880Y241808D02*
Y247904D01*
X61976D01*
Y241808D01*
X55880D01*
X66548Y239776D02*
Y249936D01*
X76708D01*
Y239776D01*
X66548D01*
X68580Y241808D02*
Y247904D01*
X74676D01*
Y241808D01*
X68580D01*
X79248Y239776D02*
Y249936D01*
X89408D01*
Y239776D01*
X79248D01*
X81280Y241808D02*
Y247904D01*
X87376D01*
Y241808D01*
X81280D01*
X91948Y239776D02*
Y249936D01*
X102108D01*
Y239776D01*
X91948D01*
X93980Y241808D02*
Y247904D01*
X100076D01*
Y241808D01*
X93980D01*
X104648Y240538D02*
Y250698D01*
X114808D01*
Y240538D01*
X104648D01*
X106680Y242570D02*
Y248666D01*
X112776D01*
Y242570D01*
X106680D01*
X117348Y240538D02*
Y250698D01*
X127508D01*
Y240538D01*
X117348D01*
X119380Y242570D02*
Y248666D01*
X125476D01*
Y242570D01*
X119380D01*
X130096Y240225D02*
Y250385D01*
X140256D01*
Y240225D01*
X130096D01*
X132128Y242257D02*
Y248353D01*
X138224D01*
Y242257D01*
X132128D01*
X142796Y240225D02*
Y250385D01*
X152956D01*
Y240225D01*
X142796D01*
X144828Y242257D02*
Y248353D01*
X150924D01*
Y242257D01*
X144828D01*
X155496Y240225D02*
Y250385D01*
X165656D01*
Y240225D01*
X155496D01*
X157528Y242257D02*
Y248353D01*
X163624D01*
Y242257D01*
X157528D01*
X168196Y240225D02*
Y250385D01*
X178356D01*
Y240225D01*
X168196D01*
X170228Y242257D02*
Y248353D01*
X176324D01*
Y242257D01*
X170228D01*
X15748Y254508D02*
Y264668D01*
X25908D01*
Y254508D01*
X15748D01*
X17780Y256540D02*
Y262636D01*
X23876D01*
Y256540D01*
X17780D01*
X28448Y254508D02*
Y264668D01*
X38608D01*
Y254508D01*
X28448D01*
X30480Y256540D02*
Y262636D01*
X36576D01*
Y256540D01*
X30480D01*
X41148Y254508D02*
Y264668D01*
X51308D01*
Y254508D01*
X41148D01*
X43180Y256540D02*
Y262636D01*
X49276D01*
Y256540D01*
X43180D01*
X53848Y254508D02*
Y264668D01*
X64008D01*
Y254508D01*
X53848D01*
X55880Y256540D02*
Y262636D01*
X61976D01*
Y256540D01*
X55880D01*
X66548Y254508D02*
Y264668D01*
X76708D01*
Y254508D01*
X66548D01*
X68580Y256540D02*
Y262636D01*
X74676D01*
Y256540D01*
X68580D01*
X79248Y254508D02*
Y264668D01*
X89408D01*
Y254508D01*
X79248D01*
X81280Y256540D02*
Y262636D01*
X87376D01*
Y256540D01*
X81280D01*
X91948Y254508D02*
Y264668D01*
X102108D01*
Y254508D01*
X91948D01*
X93980Y256540D02*
Y262636D01*
X100076D01*
Y256540D01*
X93980D01*
X104648Y254508D02*
Y264668D01*
X114808D01*
Y254508D01*
X104648D01*
X106680Y256540D02*
Y262636D01*
X112776D01*
Y256540D01*
X106680D01*
X117348Y254508D02*
Y264668D01*
X127508D01*
Y254508D01*
X117348D01*
X119380Y256540D02*
Y262636D01*
X125476D01*
Y256540D01*
X119380D01*
X130096Y255465D02*
Y265625D01*
X140256D01*
Y255465D01*
X130096D01*
X132128Y257497D02*
Y263593D01*
X138224D01*
Y257497D01*
X132128D01*
X142796Y255465D02*
Y265625D01*
X152956D01*
Y255465D01*
X142796D01*
X144828Y257497D02*
Y263593D01*
X150924D01*
Y257497D01*
X144828D01*
X155496Y255465D02*
Y265625D01*
X165656D01*
Y255465D01*
X155496D01*
X157528Y257497D02*
Y263593D01*
X163624D01*
Y257497D01*
X157528D01*
X168196Y255465D02*
Y265625D01*
X178356D01*
Y255465D01*
X168196D01*
X170228Y257497D02*
Y263593D01*
X176324D01*
Y257497D01*
X170228D01*
X15748Y270510D02*
Y280670D01*
X25908D01*
Y270510D01*
X15748D01*
X17780Y272542D02*
Y278638D01*
X23876D01*
Y272542D01*
X17780D01*
X28448Y270510D02*
Y280670D01*
X38608D01*
Y270510D01*
X28448D01*
X30480Y272542D02*
Y278638D01*
X36576D01*
Y272542D01*
X30480D01*
X41148Y270256D02*
Y280416D01*
X51308D01*
Y270256D01*
X41148D01*
X43180Y272288D02*
Y278384D01*
X49276D01*
Y272288D01*
X43180D01*
X53848Y270256D02*
Y280416D01*
X64008D01*
Y270256D01*
X53848D01*
X55880Y272288D02*
Y278384D01*
X61976D01*
Y272288D01*
X55880D01*
X66548Y270002D02*
Y280162D01*
X76708D01*
Y270002D01*
X66548D01*
X68580Y272034D02*
Y278130D01*
X74676D01*
Y272034D01*
X68580D01*
X79248Y270002D02*
Y280162D01*
X89408D01*
Y270002D01*
X79248D01*
X81280Y272034D02*
Y278130D01*
X87376D01*
Y272034D01*
X81280D01*
X91948Y270002D02*
Y280162D01*
X102108D01*
Y270002D01*
X91948D01*
X93980Y272034D02*
Y278130D01*
X100076D01*
Y272034D01*
X93980D01*
X104648Y270002D02*
Y280162D01*
X114808D01*
Y270002D01*
X104648D01*
X106680Y272034D02*
Y278130D01*
X112776D01*
Y272034D01*
X106680D01*
X117348Y269748D02*
Y279908D01*
X127508D01*
Y269748D01*
X117348D01*
X119380Y271780D02*
Y277876D01*
X125476D01*
Y271780D01*
X119380D01*
X130096Y269689D02*
Y279849D01*
X140256D01*
Y269689D01*
X130096D01*
X132128Y271721D02*
Y277817D01*
X138224D01*
Y271721D01*
X132128D01*
X142796Y269689D02*
Y279849D01*
X152956D01*
Y269689D01*
X142796D01*
X144828Y271721D02*
Y277817D01*
X150924D01*
Y271721D01*
X144828D01*
X155496Y269435D02*
Y279595D01*
X165656D01*
Y269435D01*
X155496D01*
X157528Y271467D02*
Y277563D01*
X163624D01*
Y271467D01*
X157528D01*
X168196Y269435D02*
Y279595D01*
X178356D01*
Y269435D01*
X168196D01*
X170228Y271467D02*
Y277563D01*
X176324D01*
Y271467D01*
X170228D01*
X164386Y177995D02*
Y188155D01*
X174546D01*
Y177995D01*
X164386D01*
X166418Y180027D02*
Y186123D01*
X172514D01*
Y180027D01*
X166418D01*
X177086Y177995D02*
Y188155D01*
X187246D01*
Y177995D01*
X177086D01*
X179118Y180027D02*
Y186123D01*
X185214D01*
Y180027D01*
X179118D01*
X202486Y177995D02*
Y188155D01*
X212646D01*
Y177995D01*
X202486D01*
X204518Y180027D02*
Y186123D01*
X210614D01*
Y180027D01*
X204518D01*
X189786Y177995D02*
Y188155D01*
X199946D01*
Y177995D01*
X189786D01*
X191818Y180027D02*
Y186123D01*
X197914D01*
Y180027D01*
X191818D01*
X215186Y177995D02*
Y188155D01*
X225346D01*
Y177995D01*
X215186D01*
X217218Y180027D02*
Y186123D01*
X223314D01*
Y180027D01*
X217218D01*
X227886Y177995D02*
Y188155D01*
X238046D01*
Y177995D01*
X227886D01*
X229918Y180027D02*
Y186123D01*
X236014D01*
Y180027D01*
X229918D01*
X253286Y177995D02*
Y188155D01*
X263446D01*
Y177995D01*
X253286D01*
X255318Y180027D02*
Y186123D01*
X261414D01*
Y180027D01*
X255318D01*
X240586Y177995D02*
Y188155D01*
X250746D01*
Y177995D01*
X240586D01*
X242618Y180027D02*
Y186123D01*
X248714D01*
Y180027D01*
X242618D01*
X138986Y177995D02*
Y188155D01*
X149146D01*
Y177995D01*
X138986D01*
X141018Y180027D02*
Y186123D01*
X147114D01*
Y180027D01*
X141018D01*
X151686Y177995D02*
Y188155D01*
X161846D01*
Y177995D01*
X151686D01*
X153718Y180027D02*
Y186123D01*
X159814D01*
Y180027D01*
X153718D01*
X265986Y177995D02*
Y188155D01*
X276146D01*
Y177995D01*
X265986D01*
X268018Y180027D02*
Y186123D01*
X274114D01*
Y180027D01*
X268018D01*
X278686Y177995D02*
Y188155D01*
X288846D01*
Y177995D01*
X278686D01*
X280718Y180027D02*
Y186123D01*
X286814D01*
Y180027D01*
X280718D01*
X291386Y177995D02*
Y188155D01*
X301546D01*
Y177995D01*
X291386D01*
X293418Y180027D02*
Y186123D01*
X299514D01*
Y180027D01*
X293418D01*
X304086Y177995D02*
Y188155D01*
X314246D01*
Y177995D01*
X304086D01*
X306118Y180027D02*
Y186123D01*
X312214D01*
Y180027D01*
X306118D01*
X316786Y177995D02*
Y188155D01*
X326946D01*
Y177995D01*
X316786D01*
X318818Y180027D02*
Y186123D01*
X324914D01*
Y180027D01*
X318818D01*
X126286Y177995D02*
Y188155D01*
X136446D01*
Y177995D01*
X126286D01*
X128318Y180027D02*
Y186123D01*
X134414D01*
Y180027D01*
X128318D01*
X329486Y198061D02*
Y208221D01*
X339646D01*
Y198061D01*
X329486D01*
X331518Y200093D02*
Y206189D01*
X337614D01*
Y200093D01*
X331518D01*
X381556Y197299D02*
Y207459D01*
X391716D01*
Y197299D01*
X381556D01*
X383588Y199331D02*
Y205427D01*
X389684D01*
Y199331D01*
X383588D01*
X342186Y198061D02*
Y208221D01*
X352346D01*
Y198061D01*
X342186D01*
X344218Y200093D02*
Y206189D01*
X350314D01*
Y200093D01*
X344218D01*
X316786Y198315D02*
Y208475D01*
X326946D01*
Y198315D01*
X316786D01*
X318818Y200347D02*
Y206443D01*
X324914D01*
Y200347D01*
X318818D01*
X304086Y198569D02*
Y208729D01*
X314246D01*
Y198569D01*
X304086D01*
X306118Y200601D02*
Y206697D01*
X312214D01*
Y200601D01*
X306118D01*
X354886Y197807D02*
Y207967D01*
X365046D01*
Y197807D01*
X354886D01*
X356918Y199839D02*
Y205935D01*
X363014D01*
Y199839D01*
X356918D01*
X291386Y198823D02*
Y208983D01*
X301546D01*
Y198823D01*
X291386D01*
X293418Y200855D02*
Y206951D01*
X299514D01*
Y200855D01*
X293418D01*
X278686Y198823D02*
Y208983D01*
X288846D01*
Y198823D01*
X278686D01*
X280718Y200855D02*
Y206951D01*
X286814D01*
Y200855D01*
X280718D01*
X240586Y199585D02*
Y209745D01*
X250746D01*
Y199585D01*
X240586D01*
X242618Y201617D02*
Y207713D01*
X248714D01*
Y201617D01*
X242618D01*
X253286Y199331D02*
Y209491D01*
X263446D01*
Y199331D01*
X253286D01*
X255318Y201363D02*
Y207459D01*
X261414D01*
Y201363D01*
X255318D01*
X215186Y200093D02*
Y210253D01*
X225346D01*
Y200093D01*
X215186D01*
X217218Y202125D02*
Y208221D01*
X223314D01*
Y202125D01*
X217218D01*
X227886Y199839D02*
Y209999D01*
X238046D01*
Y199839D01*
X227886D01*
X229918Y201871D02*
Y207967D01*
X236014D01*
Y201871D01*
X229918D01*
X265986Y199077D02*
Y209237D01*
X276146D01*
Y199077D01*
X265986D01*
X268018Y201109D02*
Y207205D01*
X274114D01*
Y201109D01*
X268018D01*
X202486Y200347D02*
Y210507D01*
X212646D01*
Y200347D01*
X202486D01*
X204518Y202379D02*
Y208475D01*
X210614D01*
Y202379D01*
X204518D01*
X182166Y226255D02*
Y236415D01*
X192326D01*
Y226255D01*
X182166D01*
X184198Y228287D02*
Y234383D01*
X190294D01*
Y228287D01*
X184198D01*
X181912Y240225D02*
Y250385D01*
X192072D01*
Y240225D01*
X181912D01*
X183944Y242257D02*
Y248353D01*
X190040D01*
Y242257D01*
X183944D01*
X181658Y255465D02*
Y265625D01*
X191818D01*
Y255465D01*
X181658D01*
X183690Y257497D02*
Y263593D01*
X189786D01*
Y257497D01*
X183690D01*
X181658Y269435D02*
Y279595D01*
X191818D01*
Y269435D01*
X181658D01*
X183690Y271467D02*
Y277563D01*
X189786D01*
Y271467D01*
X183690D01*
X174800Y201109D02*
Y211269D01*
X184960D01*
Y201109D01*
X174800D01*
X176832Y203141D02*
Y209237D01*
X182928D01*
Y203141D01*
X176832D01*
X163116Y200855D02*
Y211015D01*
X173276D01*
Y200855D01*
X163116D01*
X165148Y202887D02*
Y208983D01*
X171244D01*
Y202887D01*
X165148D01*
X150416Y200855D02*
Y211015D01*
X160576D01*
Y200855D01*
X150416D01*
X152448Y202887D02*
Y208983D01*
X158544D01*
Y202887D01*
X152448D01*
X137716Y200855D02*
Y211015D01*
X147876D01*
Y200855D01*
X137716D01*
X139748Y202887D02*
Y208983D01*
X145844D01*
Y202887D01*
X139748D01*
X124968Y201168D02*
Y211328D01*
X135128D01*
Y201168D01*
X124968D01*
X127000Y203200D02*
Y209296D01*
X133096D01*
Y203200D01*
X127000D01*
X112268Y201168D02*
Y211328D01*
X122428D01*
Y201168D01*
X112268D01*
X114300Y203200D02*
Y209296D01*
X120396D01*
Y203200D01*
X114300D01*
X91948Y227330D02*
Y237490D01*
X102108D01*
Y227330D01*
X91948D01*
X93980Y229362D02*
Y235458D01*
X100076D01*
Y229362D01*
X93980D01*
X79248Y227330D02*
Y237490D01*
X89408D01*
Y227330D01*
X79248D01*
X81280Y229362D02*
Y235458D01*
X87376D01*
Y229362D01*
X81280D01*
X66548Y227330D02*
Y237490D01*
X76708D01*
Y227330D01*
X66548D01*
X68580Y229362D02*
Y235458D01*
X74676D01*
Y229362D01*
X68580D01*
X53848Y227330D02*
Y237490D01*
X64008D01*
Y227330D01*
X53848D01*
X55880Y229362D02*
Y235458D01*
X61976D01*
Y229362D01*
X55880D01*
X41148Y227330D02*
Y237490D01*
X51308D01*
Y227330D01*
X41148D01*
X43180Y229362D02*
Y235458D01*
X49276D01*
Y229362D01*
X43180D01*
X28448Y227330D02*
Y237490D01*
X38608D01*
Y227330D01*
X28448D01*
X30480Y229362D02*
Y235458D01*
X36576D01*
Y229362D01*
X30480D01*
X15748Y227330D02*
Y237490D01*
X25908D01*
Y227330D01*
X15748D01*
X17780Y229362D02*
Y235458D01*
X23876D01*
Y229362D01*
X17780D01*
X2286Y270256D02*
Y280416D01*
X12446D01*
Y270256D01*
X2286D01*
X4318Y272288D02*
Y278384D01*
X10414D01*
Y272288D01*
X4318D01*
X2286Y254508D02*
Y264668D01*
X12446D01*
Y254508D01*
X2286D01*
X4318Y256540D02*
Y262636D01*
X10414D01*
Y256540D01*
X4318D01*
X2286Y227330D02*
Y237490D01*
X12446D01*
Y227330D01*
X2286D01*
X4318Y229362D02*
Y235458D01*
X10414D01*
Y229362D01*
X4318D01*
X2171Y239894D02*
Y250054D01*
X12331D01*
Y239894D01*
X2171D01*
X4203Y241926D02*
Y248022D01*
X10299D01*
Y241926D01*
X4203D01*
X99314Y191008D02*
Y201168D01*
X109474D01*
Y191008D01*
X99314D01*
X101346Y193040D02*
Y199136D01*
X107442D01*
Y193040D01*
X101346D01*
X22860Y468630D02*
Y478790D01*
X33020D01*
Y468630D01*
X22860D01*
X24892Y470662D02*
Y476758D01*
X30988D01*
Y470662D01*
X24892D01*
X21590Y450850D02*
Y461010D01*
X31750D01*
Y450850D01*
X21590D01*
X23622Y452882D02*
Y458978D01*
X29718D01*
Y452882D01*
X23622D01*
X49530Y447040D02*
Y457200D01*
X59690D01*
Y447040D01*
X49530D01*
X51562Y449072D02*
Y455168D01*
X57658D01*
Y449072D01*
X51562D01*
X226060Y360680D02*
Y370840D01*
X236220D01*
Y360680D01*
X226060D01*
X228092Y362712D02*
Y368808D01*
X234188D01*
Y362712D01*
X228092D01*
D170*
X573248Y740219D02*
G03*
X573248Y740219I-5080J0D01*
G01*
M02*
