G04*
G04 #@! TF.GenerationSoftware,Altium Limited,Altium Designer,23.1.1 (15)*
G04*
G04 Layer_Color=8388736*
%FSLAX44Y44*%
%MOMM*%
G71*
G04*
G04 #@! TF.SameCoordinates,8BC828A1-C8E0-4588-AEB6-AA5E87443106*
G04*
G04*
G04 #@! TF.FilePolarity,Negative*
G04*
G01*
G75*
G04:AMPARAMS|DCode=73|XSize=0.8616mm|YSize=2.5016mm|CornerRadius=0.2408mm|HoleSize=0mm|Usage=FLASHONLY|Rotation=270.000|XOffset=0mm|YOffset=0mm|HoleType=Round|Shape=RoundedRectangle|*
%AMROUNDEDRECTD73*
21,1,0.8616,2.0200,0,0,270.0*
21,1,0.3800,2.5016,0,0,270.0*
1,1,0.4816,-1.0100,-0.1900*
1,1,0.4816,-1.0100,0.1900*
1,1,0.4816,1.0100,0.1900*
1,1,0.4816,1.0100,-0.1900*
%
%ADD73ROUNDEDRECTD73*%
%ADD74R,2.5016X0.8616*%
%ADD75R,0.8532X0.9032*%
%ADD76R,1.6032X1.3032*%
G04:AMPARAMS|DCode=77|XSize=1.6032mm|YSize=1.3032mm|CornerRadius=0.3766mm|HoleSize=0mm|Usage=FLASHONLY|Rotation=0.000|XOffset=0mm|YOffset=0mm|HoleType=Round|Shape=RoundedRectangle|*
%AMROUNDEDRECTD77*
21,1,1.6032,0.5500,0,0,0.0*
21,1,0.8500,1.3032,0,0,0.0*
1,1,0.7532,0.4250,-0.2750*
1,1,0.7532,-0.4250,-0.2750*
1,1,0.7532,-0.4250,0.2750*
1,1,0.7532,0.4250,0.2750*
%
%ADD77ROUNDEDRECTD77*%
%ADD78R,2.1500X2.1500*%
%ADD79R,0.7000X0.3400*%
G04:AMPARAMS|DCode=80|XSize=0.34mm|YSize=0.7mm|CornerRadius=0.11mm|HoleSize=0mm|Usage=FLASHONLY|Rotation=90.000|XOffset=0mm|YOffset=0mm|HoleType=Round|Shape=RoundedRectangle|*
%AMROUNDEDRECTD80*
21,1,0.3400,0.4800,0,0,90.0*
21,1,0.1200,0.7000,0,0,90.0*
1,1,0.2200,0.2400,0.0600*
1,1,0.2200,0.2400,-0.0600*
1,1,0.2200,-0.2400,-0.0600*
1,1,0.2200,-0.2400,0.0600*
%
%ADD80ROUNDEDRECTD80*%
G04:AMPARAMS|DCode=81|XSize=0.34mm|YSize=0.7mm|CornerRadius=0.11mm|HoleSize=0mm|Usage=FLASHONLY|Rotation=0.000|XOffset=0mm|YOffset=0mm|HoleType=Round|Shape=RoundedRectangle|*
%AMROUNDEDRECTD81*
21,1,0.3400,0.4800,0,0,0.0*
21,1,0.1200,0.7000,0,0,0.0*
1,1,0.2200,0.0600,-0.2400*
1,1,0.2200,-0.0600,-0.2400*
1,1,0.2200,-0.0600,0.2400*
1,1,0.2200,0.0600,0.2400*
%
%ADD81ROUNDEDRECTD81*%
G04:AMPARAMS|DCode=82|XSize=3.4032mm|YSize=1.2032mm|CornerRadius=0.3516mm|HoleSize=0mm|Usage=FLASHONLY|Rotation=90.000|XOffset=0mm|YOffset=0mm|HoleType=Round|Shape=RoundedRectangle|*
%AMROUNDEDRECTD82*
21,1,3.4032,0.5000,0,0,90.0*
21,1,2.7000,1.2032,0,0,90.0*
1,1,0.7032,0.2500,1.3500*
1,1,0.7032,0.2500,-1.3500*
1,1,0.7032,-0.2500,-1.3500*
1,1,0.7032,-0.2500,1.3500*
%
%ADD82ROUNDEDRECTD82*%
%ADD83R,1.4032X1.2032*%
G04:AMPARAMS|DCode=84|XSize=0.8032mm|YSize=1.0032mm|CornerRadius=0.2516mm|HoleSize=0mm|Usage=FLASHONLY|Rotation=180.000|XOffset=0mm|YOffset=0mm|HoleType=Round|Shape=RoundedRectangle|*
%AMROUNDEDRECTD84*
21,1,0.8032,0.5000,0,0,180.0*
21,1,0.3000,1.0032,0,0,180.0*
1,1,0.5032,-0.1500,0.2500*
1,1,0.5032,0.1500,0.2500*
1,1,0.5032,0.1500,-0.2500*
1,1,0.5032,-0.1500,-0.2500*
%
%ADD84ROUNDEDRECTD84*%
%ADD85R,1.2032X1.4032*%
G04:AMPARAMS|DCode=86|XSize=2.9032mm|YSize=1.2032mm|CornerRadius=0.3516mm|HoleSize=0mm|Usage=FLASHONLY|Rotation=180.000|XOffset=0mm|YOffset=0mm|HoleType=Round|Shape=RoundedRectangle|*
%AMROUNDEDRECTD86*
21,1,2.9032,0.5000,0,0,180.0*
21,1,2.2000,1.2032,0,0,180.0*
1,1,0.7032,-1.1000,0.2500*
1,1,0.7032,1.1000,0.2500*
1,1,0.7032,1.1000,-0.2500*
1,1,0.7032,-1.1000,-0.2500*
%
%ADD86ROUNDEDRECTD86*%
G04:AMPARAMS|DCode=87|XSize=1.1032mm|YSize=1.1032mm|CornerRadius=0.3266mm|HoleSize=0mm|Usage=FLASHONLY|Rotation=0.000|XOffset=0mm|YOffset=0mm|HoleType=Round|Shape=RoundedRectangle|*
%AMROUNDEDRECTD87*
21,1,1.1032,0.4500,0,0,0.0*
21,1,0.4500,1.1032,0,0,0.0*
1,1,0.6532,0.2250,-0.2250*
1,1,0.6532,-0.2250,-0.2250*
1,1,0.6532,-0.2250,0.2250*
1,1,0.6532,0.2250,0.2250*
%
%ADD87ROUNDEDRECTD87*%
%ADD88R,0.6032X0.8032*%
%ADD89R,1.2532X0.7032*%
G04:AMPARAMS|DCode=90|XSize=1.1032mm|YSize=1.1032mm|CornerRadius=0.3266mm|HoleSize=0mm|Usage=FLASHONLY|Rotation=270.000|XOffset=0mm|YOffset=0mm|HoleType=Round|Shape=RoundedRectangle|*
%AMROUNDEDRECTD90*
21,1,1.1032,0.4500,0,0,270.0*
21,1,0.4500,1.1032,0,0,270.0*
1,1,0.6532,-0.2250,-0.2250*
1,1,0.6532,-0.2250,0.2250*
1,1,0.6532,0.2250,0.2250*
1,1,0.6532,0.2250,-0.2250*
%
%ADD90ROUNDEDRECTD90*%
G04:AMPARAMS|DCode=91|XSize=1.4032mm|YSize=1.2032mm|CornerRadius=0.3516mm|HoleSize=0mm|Usage=FLASHONLY|Rotation=180.000|XOffset=0mm|YOffset=0mm|HoleType=Round|Shape=RoundedRectangle|*
%AMROUNDEDRECTD91*
21,1,1.4032,0.5000,0,0,180.0*
21,1,0.7000,1.2032,0,0,180.0*
1,1,0.7032,-0.3500,0.2500*
1,1,0.7032,0.3500,0.2500*
1,1,0.7032,0.3500,-0.2500*
1,1,0.7032,-0.3500,-0.2500*
%
%ADD91ROUNDEDRECTD91*%
G04:AMPARAMS|DCode=92|XSize=0.4mm|YSize=0.8mm|CornerRadius=0.125mm|HoleSize=0mm|Usage=FLASHONLY|Rotation=0.000|XOffset=0mm|YOffset=0mm|HoleType=Round|Shape=RoundedRectangle|*
%AMROUNDEDRECTD92*
21,1,0.4000,0.5500,0,0,0.0*
21,1,0.1500,0.8000,0,0,0.0*
1,1,0.2500,0.0750,-0.2750*
1,1,0.2500,-0.0750,-0.2750*
1,1,0.2500,-0.0750,0.2750*
1,1,0.2500,0.0750,0.2750*
%
%ADD92ROUNDEDRECTD92*%
G04:AMPARAMS|DCode=93|XSize=0.4mm|YSize=1.1mm|CornerRadius=0.125mm|HoleSize=0mm|Usage=FLASHONLY|Rotation=0.000|XOffset=0mm|YOffset=0mm|HoleType=Round|Shape=RoundedRectangle|*
%AMROUNDEDRECTD93*
21,1,0.4000,0.8500,0,0,0.0*
21,1,0.1500,1.1000,0,0,0.0*
1,1,0.2500,0.0750,-0.4250*
1,1,0.2500,-0.0750,-0.4250*
1,1,0.2500,-0.0750,0.4250*
1,1,0.2500,0.0750,0.4250*
%
%ADD93ROUNDEDRECTD93*%
G04:AMPARAMS|DCode=94|XSize=0.8032mm|YSize=1.3032mm|CornerRadius=0.2516mm|HoleSize=0mm|Usage=FLASHONLY|Rotation=90.000|XOffset=0mm|YOffset=0mm|HoleType=Round|Shape=RoundedRectangle|*
%AMROUNDEDRECTD94*
21,1,0.8032,0.8000,0,0,90.0*
21,1,0.3000,1.3032,0,0,90.0*
1,1,0.5032,0.4000,0.1500*
1,1,0.5032,0.4000,-0.1500*
1,1,0.5032,-0.4000,-0.1500*
1,1,0.5032,-0.4000,0.1500*
%
%ADD94ROUNDEDRECTD94*%
%ADD95R,1.3032X0.8032*%
G04:AMPARAMS|DCode=96|XSize=1.6032mm|YSize=1.0032mm|CornerRadius=0.3016mm|HoleSize=0mm|Usage=FLASHONLY|Rotation=270.000|XOffset=0mm|YOffset=0mm|HoleType=Round|Shape=RoundedRectangle|*
%AMROUNDEDRECTD96*
21,1,1.6032,0.4000,0,0,270.0*
21,1,1.0000,1.0032,0,0,270.0*
1,1,0.6032,-0.2000,-0.5000*
1,1,0.6032,-0.2000,0.5000*
1,1,0.6032,0.2000,0.5000*
1,1,0.6032,0.2000,-0.5000*
%
%ADD96ROUNDEDRECTD96*%
G04:AMPARAMS|DCode=97|XSize=0.5532mm|YSize=0.9532mm|CornerRadius=0.1891mm|HoleSize=0mm|Usage=FLASHONLY|Rotation=180.000|XOffset=0mm|YOffset=0mm|HoleType=Round|Shape=RoundedRectangle|*
%AMROUNDEDRECTD97*
21,1,0.5532,0.5750,0,0,180.0*
21,1,0.1750,0.9532,0,0,180.0*
1,1,0.3782,-0.0875,0.2875*
1,1,0.3782,0.0875,0.2875*
1,1,0.3782,0.0875,-0.2875*
1,1,0.3782,-0.0875,-0.2875*
%
%ADD97ROUNDEDRECTD97*%
%ADD98R,0.5532X0.9532*%
G04:AMPARAMS|DCode=99|XSize=1.6032mm|YSize=1.0032mm|CornerRadius=0.3016mm|HoleSize=0mm|Usage=FLASHONLY|Rotation=180.000|XOffset=0mm|YOffset=0mm|HoleType=Round|Shape=RoundedRectangle|*
%AMROUNDEDRECTD99*
21,1,1.6032,0.4000,0,0,180.0*
21,1,1.0000,1.0032,0,0,180.0*
1,1,0.6032,-0.5000,0.2000*
1,1,0.6032,0.5000,0.2000*
1,1,0.6032,0.5000,-0.2000*
1,1,0.6032,-0.5000,-0.2000*
%
%ADD99ROUNDEDRECTD99*%
G04:AMPARAMS|DCode=100|XSize=1.0032mm|YSize=1.0032mm|CornerRadius=0.3016mm|HoleSize=0mm|Usage=FLASHONLY|Rotation=270.000|XOffset=0mm|YOffset=0mm|HoleType=Round|Shape=RoundedRectangle|*
%AMROUNDEDRECTD100*
21,1,1.0032,0.4000,0,0,270.0*
21,1,0.4000,1.0032,0,0,270.0*
1,1,0.6032,-0.2000,-0.2000*
1,1,0.6032,-0.2000,0.2000*
1,1,0.6032,0.2000,0.2000*
1,1,0.6032,0.2000,-0.2000*
%
%ADD100ROUNDEDRECTD100*%
%ADD101R,1.0032X1.0032*%
%ADD102R,2.2032X3.2032*%
%ADD103R,1.7000X1.1000*%
G04:AMPARAMS|DCode=104|XSize=0.4mm|YSize=0.55mm|CornerRadius=0.125mm|HoleSize=0mm|Usage=FLASHONLY|Rotation=180.000|XOffset=0mm|YOffset=0mm|HoleType=Round|Shape=RoundedRectangle|*
%AMROUNDEDRECTD104*
21,1,0.4000,0.3000,0,0,180.0*
21,1,0.1500,0.5500,0,0,180.0*
1,1,0.2500,-0.0750,0.1500*
1,1,0.2500,0.0750,0.1500*
1,1,0.2500,0.0750,-0.1500*
1,1,0.2500,-0.0750,-0.1500*
%
%ADD104ROUNDEDRECTD104*%
%ADD105R,0.4000X0.5500*%
G04:AMPARAMS|DCode=106|XSize=0.36mm|YSize=0.96mm|CornerRadius=0.115mm|HoleSize=0mm|Usage=FLASHONLY|Rotation=270.000|XOffset=0mm|YOffset=0mm|HoleType=Round|Shape=RoundedRectangle|*
%AMROUNDEDRECTD106*
21,1,0.3600,0.7300,0,0,270.0*
21,1,0.1300,0.9600,0,0,270.0*
1,1,0.2300,-0.3650,-0.0650*
1,1,0.2300,-0.3650,0.0650*
1,1,0.2300,0.3650,0.0650*
1,1,0.2300,0.3650,-0.0650*
%
%ADD106ROUNDEDRECTD106*%
G04:AMPARAMS|DCode=107|XSize=0.36mm|YSize=0.96mm|CornerRadius=0.115mm|HoleSize=0mm|Usage=FLASHONLY|Rotation=0.000|XOffset=0mm|YOffset=0mm|HoleType=Round|Shape=RoundedRectangle|*
%AMROUNDEDRECTD107*
21,1,0.3600,0.7300,0,0,0.0*
21,1,0.1300,0.9600,0,0,0.0*
1,1,0.2300,0.0650,-0.3650*
1,1,0.2300,-0.0650,-0.3650*
1,1,0.2300,-0.0650,0.3650*
1,1,0.2300,0.0650,0.3650*
%
%ADD107ROUNDEDRECTD107*%
%ADD108R,0.3600X0.9600*%
%ADD109R,4.8000X4.8000*%
G04:AMPARAMS|DCode=110|XSize=4.6mm|YSize=1.7mm|CornerRadius=0.45mm|HoleSize=0mm|Usage=FLASHONLY|Rotation=90.000|XOffset=0mm|YOffset=0mm|HoleType=Round|Shape=RoundedRectangle|*
%AMROUNDEDRECTD110*
21,1,4.6000,0.8000,0,0,90.0*
21,1,3.7000,1.7000,0,0,90.0*
1,1,0.9000,0.4000,1.8500*
1,1,0.9000,0.4000,-1.8500*
1,1,0.9000,-0.4000,-1.8500*
1,1,0.9000,-0.4000,1.8500*
%
%ADD110ROUNDEDRECTD110*%
G04:AMPARAMS|DCode=111|XSize=1.7032mm|YSize=1.7532mm|CornerRadius=0.4766mm|HoleSize=0mm|Usage=FLASHONLY|Rotation=270.000|XOffset=0mm|YOffset=0mm|HoleType=Round|Shape=RoundedRectangle|*
%AMROUNDEDRECTD111*
21,1,1.7032,0.8000,0,0,270.0*
21,1,0.7500,1.7532,0,0,270.0*
1,1,0.9532,-0.4000,-0.3750*
1,1,0.9532,-0.4000,0.3750*
1,1,0.9532,0.4000,0.3750*
1,1,0.9532,0.4000,-0.3750*
%
%ADD111ROUNDEDRECTD111*%
G04:AMPARAMS|DCode=112|XSize=0.6032mm|YSize=1.5532mm|CornerRadius=0.2016mm|HoleSize=0mm|Usage=FLASHONLY|Rotation=270.000|XOffset=0mm|YOffset=0mm|HoleType=Round|Shape=RoundedRectangle|*
%AMROUNDEDRECTD112*
21,1,0.6032,1.1500,0,0,270.0*
21,1,0.2000,1.5532,0,0,270.0*
1,1,0.4032,-0.5750,-0.1000*
1,1,0.4032,-0.5750,0.1000*
1,1,0.4032,0.5750,0.1000*
1,1,0.4032,0.5750,-0.1000*
%
%ADD112ROUNDEDRECTD112*%
%ADD113R,2.1032X1.3032*%
%ADD114R,1.1532X1.2032*%
%ADD115R,0.8000X0.7500*%
%ADD116R,0.8000X0.7500*%
%ADD117R,2.2032X7.6032*%
G04:AMPARAMS|DCode=118|XSize=0.78mm|YSize=0.82mm|CornerRadius=0.235mm|HoleSize=0mm|Usage=FLASHONLY|Rotation=180.000|XOffset=0mm|YOffset=0mm|HoleType=Round|Shape=RoundedRectangle|*
%AMROUNDEDRECTD118*
21,1,0.7800,0.3500,0,0,180.0*
21,1,0.3100,0.8200,0,0,180.0*
1,1,0.4700,-0.1550,0.1750*
1,1,0.4700,0.1550,0.1750*
1,1,0.4700,0.1550,-0.1750*
1,1,0.4700,-0.1550,-0.1750*
%
%ADD118ROUNDEDRECTD118*%
G04:AMPARAMS|DCode=119|XSize=0.78mm|YSize=0.82mm|CornerRadius=0.235mm|HoleSize=0mm|Usage=FLASHONLY|Rotation=270.000|XOffset=0mm|YOffset=0mm|HoleType=Round|Shape=RoundedRectangle|*
%AMROUNDEDRECTD119*
21,1,0.7800,0.3500,0,0,270.0*
21,1,0.3100,0.8200,0,0,270.0*
1,1,0.4700,-0.1750,-0.1550*
1,1,0.4700,-0.1750,0.1550*
1,1,0.4700,0.1750,0.1550*
1,1,0.4700,0.1750,-0.1550*
%
%ADD119ROUNDEDRECTD119*%
G04:AMPARAMS|DCode=120|XSize=0.8032mm|YSize=1.0032mm|CornerRadius=0.2516mm|HoleSize=0mm|Usage=FLASHONLY|Rotation=270.000|XOffset=0mm|YOffset=0mm|HoleType=Round|Shape=RoundedRectangle|*
%AMROUNDEDRECTD120*
21,1,0.8032,0.5000,0,0,270.0*
21,1,0.3000,1.0032,0,0,270.0*
1,1,0.5032,-0.2500,-0.1500*
1,1,0.5032,-0.2500,0.1500*
1,1,0.5032,0.2500,0.1500*
1,1,0.5032,0.2500,-0.1500*
%
%ADD120ROUNDEDRECTD120*%
%ADD121C,1.8532*%
%ADD122R,1.8532X1.8532*%
%ADD123C,1.5682*%
%ADD124C,1.7032*%
%ADD125C,1.9812*%
%ADD126R,1.8032X1.8032*%
%ADD127C,1.8032*%
%ADD128O,1.7532X1.0160*%
%ADD129O,1.0160X1.5032*%
%ADD130C,0.7032*%
%ADD131C,1.1000*%
D73*
X403040Y289928D02*
D03*
X364040D02*
D03*
X403040Y302628D02*
D03*
X364040D02*
D03*
X403040Y315327D02*
D03*
X364040D02*
D03*
X403040Y328027D02*
D03*
X364040D02*
D03*
X403040Y340728D02*
D03*
D74*
X364040D02*
D03*
D75*
X394020Y258857D02*
D03*
X414020D02*
D03*
X363380Y109220D02*
D03*
X383380D02*
D03*
D76*
X368476Y225934D02*
D03*
D77*
X390476D02*
D03*
Y241934D02*
D03*
X368476D02*
D03*
D78*
X397510Y582812D02*
D03*
D79*
X381010Y592812D02*
D03*
D80*
Y587812D02*
D03*
Y582812D02*
D03*
Y577812D02*
D03*
Y572812D02*
D03*
X414010D02*
D03*
Y577812D02*
D03*
Y582812D02*
D03*
Y587812D02*
D03*
Y592812D02*
D03*
D81*
X387510Y566312D02*
D03*
X392510D02*
D03*
X397510D02*
D03*
X402510D02*
D03*
X407510D02*
D03*
Y599313D02*
D03*
X402510D02*
D03*
X397510D02*
D03*
X392510D02*
D03*
X387510D02*
D03*
D82*
X435223Y618490D02*
D03*
X413223D02*
D03*
D83*
X393438Y632840D02*
D03*
Y616840D02*
D03*
X328930Y606170D02*
D03*
Y590170D02*
D03*
X362458Y95630D02*
D03*
Y79630D02*
D03*
X345862Y91820D02*
D03*
Y75820D02*
D03*
X328977Y91325D02*
D03*
Y75325D02*
D03*
X499118Y355980D02*
D03*
Y339980D02*
D03*
X420370Y406020D02*
D03*
Y422020D02*
D03*
X166370Y297710D02*
D03*
Y313710D02*
D03*
X553236Y88781D02*
D03*
Y72782D02*
D03*
X617094Y199883D02*
D03*
Y215883D02*
D03*
X525057Y137540D02*
D03*
Y121540D02*
D03*
D84*
X381000Y617840D02*
D03*
Y631840D02*
D03*
D85*
X353696Y572770D02*
D03*
X369696D02*
D03*
X421004Y664210D02*
D03*
X405004D02*
D03*
X512190Y421644D02*
D03*
X496190D02*
D03*
X414910Y240037D02*
D03*
X430910D02*
D03*
X415926Y223805D02*
D03*
X431926D02*
D03*
X365380Y122936D02*
D03*
X381380D02*
D03*
X533780Y334264D02*
D03*
X517780D02*
D03*
X688720Y312550D02*
D03*
X672720D02*
D03*
X634110Y237490D02*
D03*
X618110D02*
D03*
X380872Y139438D02*
D03*
X364872D02*
D03*
X443711Y88740D02*
D03*
X427711D02*
D03*
X517780Y159305D02*
D03*
X533780D02*
D03*
X516510Y179347D02*
D03*
X532510D02*
D03*
X535560Y196850D02*
D03*
X551560D02*
D03*
D86*
X356870Y614550D02*
D03*
Y590550D02*
D03*
D87*
X419862Y535537D02*
D03*
Y551538D02*
D03*
X383921Y516254D02*
D03*
Y500254D02*
D03*
X446199Y550901D02*
D03*
Y534902D02*
D03*
X441960Y566802D02*
D03*
Y582802D02*
D03*
X473710Y567308D02*
D03*
Y551308D02*
D03*
X585470Y300240D02*
D03*
Y284240D02*
D03*
X646430Y172340D02*
D03*
Y188340D02*
D03*
X551560Y235840D02*
D03*
Y251840D02*
D03*
D88*
X419758Y680466D02*
D03*
X406758D02*
D03*
X177950Y328502D02*
D03*
X164950D02*
D03*
X73048Y478536D02*
D03*
X60048D02*
D03*
D89*
X311100Y624840D02*
D03*
X288340D02*
D03*
X311100Y589788D02*
D03*
X288340D02*
D03*
D90*
X401981Y516382D02*
D03*
X417980D02*
D03*
X506220Y726808D02*
D03*
X490220D02*
D03*
X399160Y529590D02*
D03*
X383160D02*
D03*
X451230Y49269D02*
D03*
X435230D02*
D03*
X477900Y266192D02*
D03*
X461900D02*
D03*
X485776Y240030D02*
D03*
X501776D02*
D03*
X478664Y252730D02*
D03*
X494664D02*
D03*
X455040Y595019D02*
D03*
X439040D02*
D03*
X272670Y671830D02*
D03*
X288670D02*
D03*
X285370Y326253D02*
D03*
X301370D02*
D03*
X509055Y139700D02*
D03*
X493055D02*
D03*
X663862Y212725D02*
D03*
X647862D02*
D03*
X288162Y772160D02*
D03*
X272162D02*
D03*
X300100Y214630D02*
D03*
X284100D02*
D03*
D91*
X465591Y618650D02*
D03*
Y638650D02*
D03*
D92*
X323684Y52874D02*
D03*
X328684D02*
D03*
X333684D02*
D03*
X338684D02*
D03*
X343684D02*
D03*
X348684D02*
D03*
X353684D02*
D03*
X368684D02*
D03*
X358684D02*
D03*
X363684D02*
D03*
D93*
X376584Y26374D02*
D03*
X315784D02*
D03*
D94*
X480970Y423947D02*
D03*
Y404947D02*
D03*
X454970D02*
D03*
Y414447D02*
D03*
D95*
Y423947D02*
D03*
D96*
X431667Y66017D02*
D03*
X451667D02*
D03*
D97*
X529413Y317319D02*
D03*
X521413D02*
D03*
X513413D02*
D03*
X505413D02*
D03*
X497412D02*
D03*
X489413D02*
D03*
X481413D02*
D03*
X529413Y293319D02*
D03*
X521413D02*
D03*
X513413D02*
D03*
X505413D02*
D03*
X497412D02*
D03*
X489413D02*
D03*
D98*
X481413D02*
D03*
D99*
X516747Y369704D02*
D03*
Y349704D02*
D03*
X546100Y138222D02*
D03*
Y118222D02*
D03*
D100*
X471806Y580898D02*
D03*
D101*
X487806D02*
D03*
D102*
X172493Y461545D02*
D03*
Y361545D02*
D03*
X247493D02*
D03*
Y461545D02*
D03*
D103*
X616204Y178870D02*
D03*
D104*
X622704Y188620D02*
D03*
X616204D02*
D03*
X609704D02*
D03*
X622704Y169120D02*
D03*
X616204D02*
D03*
D105*
X609704D02*
D03*
D106*
X469162Y192046D02*
D03*
Y187046D02*
D03*
Y182046D02*
D03*
Y177046D02*
D03*
Y172046D02*
D03*
Y167046D02*
D03*
Y162046D02*
D03*
Y157046D02*
D03*
Y152046D02*
D03*
Y147046D02*
D03*
Y142046D02*
D03*
Y137046D02*
D03*
X400462D02*
D03*
Y142046D02*
D03*
Y147046D02*
D03*
Y152046D02*
D03*
Y157046D02*
D03*
Y162046D02*
D03*
Y167046D02*
D03*
Y172046D02*
D03*
Y177046D02*
D03*
Y182046D02*
D03*
Y187046D02*
D03*
Y192046D02*
D03*
D107*
X462313Y130196D02*
D03*
X457313D02*
D03*
X452313D02*
D03*
X447313D02*
D03*
X442313D02*
D03*
X437313D02*
D03*
X432313D02*
D03*
X427313D02*
D03*
X422313D02*
D03*
X417313D02*
D03*
X412313D02*
D03*
X407313D02*
D03*
Y198896D02*
D03*
X412313D02*
D03*
X417313D02*
D03*
X422313D02*
D03*
X427313D02*
D03*
X432313D02*
D03*
X437313D02*
D03*
X442313D02*
D03*
X447313D02*
D03*
X452313D02*
D03*
X457313D02*
D03*
D108*
X462313D02*
D03*
D109*
X434813Y164546D02*
D03*
D110*
X496623Y79873D02*
D03*
X535623D02*
D03*
D111*
X13640Y455120D02*
D03*
Y475120D02*
D03*
D112*
X40640Y452120D02*
D03*
Y458620D02*
D03*
Y465120D02*
D03*
Y471620D02*
D03*
Y478120D02*
D03*
D113*
X467360Y111560D02*
D03*
Y86560D02*
D03*
D114*
X411575Y59690D02*
D03*
X395575D02*
D03*
D115*
X699554Y261888D02*
D03*
Y274588D02*
D03*
Y249188D02*
D03*
X657553Y261888D02*
D03*
Y274588D02*
D03*
Y249185D02*
D03*
D116*
X691024Y283142D02*
D03*
X665620D02*
D03*
X678319D02*
D03*
X691024Y241142D02*
D03*
X665620D02*
D03*
X678319D02*
D03*
D117*
X233680Y567690D02*
D03*
X25680D02*
D03*
X232270Y670560D02*
D03*
X24270D02*
D03*
X234810Y772160D02*
D03*
X26810D02*
D03*
D118*
X347980Y184232D02*
D03*
Y175432D02*
D03*
D119*
X363900Y175768D02*
D03*
X372700D02*
D03*
X318180Y175260D02*
D03*
X326980D02*
D03*
D120*
X484520Y355600D02*
D03*
X470520D02*
D03*
D121*
X542290Y701292D02*
D03*
X516890D02*
D03*
X491490D02*
D03*
D122*
X466090D02*
D03*
D123*
X693168Y740219D02*
D03*
D124*
X568168D02*
D03*
D125*
X575181Y637687D02*
D03*
Y663087D02*
D03*
X342138Y528320D02*
D03*
Y502920D02*
D03*
X458470Y448310D02*
D03*
X483870D02*
D03*
X521601Y609613D02*
D03*
Y584213D02*
D03*
X269748Y514987D02*
D03*
X295148D02*
D03*
X577481Y210058D02*
D03*
Y260858D02*
D03*
Y235458D02*
D03*
X562356Y299212D02*
D03*
Y350012D02*
D03*
Y324612D02*
D03*
D126*
X405892Y739140D02*
D03*
D127*
X431292D02*
D03*
D128*
X13640Y430120D02*
D03*
Y500120D02*
D03*
D129*
X40640Y440120D02*
D03*
Y490120D02*
D03*
D130*
X616204Y178870D02*
D03*
D131*
X679227Y270016D02*
D03*
M02*
